<?xml version="1.0" standalone="no"?>
 <!DOCTYPE svg PUBLIC "-//W3C//DTD SVG 1.1//EN" 
 "http://www.w3.org/Graphics/SVG/1.1/DTD/svg11.dtd"> 
<svg
  xmlns:svg="http://www.w3.org/2000/svg"
  xmlns="http://www.w3.org/2000/svg"
  xmlns:xlink="http://www.w3.org/1999/xlink"
  version="1.1"
  width="12.301220cm" height="6.197600cm" viewBox="0 0 123012200 61976000">
<title>SVG Picture created as surreal-serpent-F_Mask.svg date 2021/09/23 10:33:58 </title>
  <desc>Picture generated by PCBNEW </desc>
<g style="fill:#000000; fill-opacity:1.000000;stroke:#000000; stroke-opacity:1.000000;
stroke-linecap:round; stroke-linejoin:round;"
 transform="translate(0 0) scale(1 1)">
</g>
<g style="fill:#000000; fill-opacity:0.0; 
stroke:#000000; stroke-width:0.000000; stroke-opacity:1; 
stroke-linecap:round; stroke-linejoin:round;">
</g>
<g style="fill:#000000; fill-opacity:1.0; 
stroke:#000000; stroke-width:1.000000; stroke-opacity:1; 
stroke-linecap:round; stroke-linejoin:round;">
<path style="fill:#000000; fill-opacity:1.0; 
stroke:#000000; stroke-width:1.000000; stroke-opacity:1; 
stroke-linecap:round; stroke-linejoin:round;fill-rule:evenodd;"
d="M 110290665.000000,56496414.000000
110372706.000000,56519742.000000
110426839.000000,56558959.000000
110452653.000000,56609446.000000
110455909.000000,56668164.000000
110444287.000000,56752544.000000
110419297.000000,56858791.000000
110382452.000000,56983110.000000
110335263.000000,57121708.000000
110279240.000000,57270789.000000
110215897.000000,57426559.000000
110146743.000000,57585223.000000
110073292.000000,57742986.000000
109997053.000000,57896055.000000
109919538.000000,58040633.000000
109842260.000000,58172927.000000
109808525.000000,58226572.000000
109640762.000000,58469409.000000
109469668.000000,58681623.000000
109291939.000000,58866302.000000
109104274.000000,59026533.000000
108903371.000000,59165402.000000
108685928.000000,59285996.000000
108663650.000000,59296926.000000
108498733.000000,59368467.000000
108337828.000000,59419311.000000
108170420.000000,59451903.000000
107985992.000000,59468689.000000
107913617.000000,59471329.000000
107822801.000000,59472926.000000
107741091.000000,59473215.000000
107675848.000000,59472252.000000
107634432.000000,59470094.000000
107627087.000000,59469099.000000
107486954.000000,59430732.000000
107370616.000000,59375523.000000
107280623.000000,59305024.000000
107220045.000000,59221800.000000
107191940.000000,59131115.000000
107192140.000000,59030549.000000
107218262.000000,58924173.000000
107267923.000000,58816053.000000
107338741.000000,58710259.000000
107428331.000000,58610860.000000
107534312.000000,58521923.000000
107654301.000000,58447519.000000
107681505.000000,58433905.000000
107826836.000000,58376149.000000
107977152.000000,58338106.000000
108122282.000000,58321875.000000
108212405.000000,58324328.000000
108273174.000000,58332982.000000
108343033.000000,58347243.000000
108413481.000000,58364806.000000
108476016.000000,58383368.000000
108522135.000000,58400623.000000
108543172.000000,58413977.000000
108531569.000000,58420203.000000
108494123.000000,58425162.000000
108438697.000000,58427851.000000
108433685.000000,58427938.000000
108371990.000000,58430859.000000
108320183.000000,58439675.000000
108266471.000000,58457690.000000
108199063.000000,58488208.000000
108173141.000000,58500922.000000
108049937.000000,58573881.000000
107937570.000000,58663307.000000
107839920.000000,58764302.000000
107760867.000000,58871971.000000
107704292.000000,58981415.000000
107674074.000000,59087739.000000
107670075.000000,59135772.000000
107679168.000000,59215212.000000
107710028.000000,59271154.000000
107765417.000000,59306407.000000
107848096.000000,59323782.000000
107855471.000000,59324443.000000
108001052.000000,59319673.000000
108150680.000000,59281758.000000
108304057.000000,59210983.000000
108460888.000000,59107631.000000
108620873.000000,58971985.000000
108783718.000000,58804331.000000
108949124.000000,58604951.000000
109116794.000000,58374130.000000
109286432.000000,58112150.000000
109457741.000000,57819297.000000
109488175.000000,57764339.000000
109530954.000000,57684269.000000
109580090.000000,57588624.000000
109633735.000000,57481351.000000
109690045.000000,57366401.000000
109747172.000000,57247723.000000
109803272.000000,57129267.000000
109856497.000000,57014981.000000
109905003.000000,56908816.000000
109946942.000000,56814721.000000
109980470.000000,56736644.000000
110003740.000000,56678536.000000
110014906.000000,56644346.000000
110015093.000000,56637015.000000
109993886.000000,56636038.000000
109947928.000000,56644846.000000
109884018.000000,56661353.000000
109808954.000000,56683474.000000
109729535.000000,56709125.000000
109652560.000000,56736220.000000
109584829.000000,56762675.000000
109540977.000000,56782416.000000
109389412.000000,56872615.000000
109264182.000000,56978669.000000
109166402.000000,57098113.000000
109097189.000000,57228485.000000
109057658.000000,57367320.000000
109048923.000000,57512153.000000
109072101.000000,57660521.000000
109102303.000000,57751500.000000
109123458.000000,57805524.000000
109138466.000000,57846035.000000
109144008.000000,57863972.000000
109128861.000000,57866546.000000
109089603.000000,57864793.000000
109047094.000000,57860503.000000
108884956.000000,57830048.000000
108745818.000000,57781165.000000
108631646.000000,57714954.000000
108544410.000000,57632517.000000
108492859.000000,57550406.000000
108461789.000000,57461709.000000
108455547.000000,57376784.000000
108475101.000000,57289322.000000
108521419.000000,57193008.000000
108556115.000000,57137761.000000
108650167.000000,57024194.000000
108774442.000000,56917813.000000
108925976.000000,56819900.000000
109101805.000000,56731734.000000
109298964.000000,56654597.000000
109514489.000000,56589769.000000
109745416.000000,56538531.000000
109988779.000000,56502164.000000
110040023.000000,56496653.000000
110180006.000000,56488782.000000
Z" /> 
<path style="fill:#000000; fill-opacity:1.0; 
stroke:#000000; stroke-width:1.000000; stroke-opacity:1; 
stroke-linecap:round; stroke-linejoin:round;fill-rule:evenodd;"
d="M 109944591.000000,58588987.000000
109977689.000000,58439788.000000
110038156.000000,58285350.000000
110121848.000000,58132406.000000
110224623.000000,57987692.000000
110342337.000000,57857942.000000
110452533.000000,57763329.000000
110605664.000000,57660829.000000
110754111.000000,57588363.000000
110903493.000000,57543867.000000
111059427.000000,57525280.000000
111103086.000000,57524436.000000
111220868.000000,57535548.000000
111313736.000000,57569195.000000
111382257.000000,57625843.000000
111426996.000000,57705956.000000
111448342.000000,57808003.000000
111444986.000000,57929953.000000
111415644.000000,58064846.000000
111362285.000000,58206789.000000
111286879.000000,58349888.000000
111245986.000000,58413520.000000
111213471.000000,58465305.000000
111202568.000000,58494065.000000
111210517.000000,58502007.000000
111255026.000000,58490255.000000
111318221.000000,58456830.000000
111395553.000000,58404480.000000
111474278.000000,58342788.000000
111520522.000000,58303083.000000
111556890.000000,58267050.000000
111588265.000000,58227814.000000
111619527.000000,58178498.000000
111655559.000000,58112227.000000
111699604.000000,58025400.000000
111769950.000000,57886383.000000
111828927.000000,57775080.000000
111879245.000000,57688574.000000
111923612.000000,57623952.000000
111964735.000000,57578296.000000
112005323.000000,57548691.000000
112048085.000000,57532222.000000
112095728.000000,57525972.000000
112150961.000000,57527025.000000
112161836.000000,57527760.000000
112219643.000000,57535129.000000
112265884.000000,57546690.000000
112284641.000000,57555851.000000
112292708.000000,57562107.000000
112298243.000000,57568576.000000
112299992.000000,57579003.000000
112296700.000000,57597137.000000
112287115.000000,57626723.000000
112269982.000000,57671508.000000
112244048.000000,57735239.000000
112208058.000000,57821662.000000
112160758.000000,57934524.000000
112146612.000000,57968281.000000
112077179.000000,58134025.000000
112305387.000000,57914683.000000
112386944.000000,57838112.000000
112469707.000000,57763598.000000
112547045.000000,57696890.000000
112612327.000000,57643738.000000
112650691.000000,57615333.000000
112714496.000000,57573853.000000
112762533.000000,57549313.000000
112805253.000000,57537464.000000
112850667.000000,57534094.000000
112909970.000000,57537593.000000
112951626.000000,57553500.000000
112978839.000000,57575000.000000
113003831.000000,57601341.000000
113016319.000000,57628034.000000
113019214.000000,57666489.000000
113016011.000000,57720734.000000
113013266.000000,57749931.000000
113008965.000000,57778359.000000
113001788.000000,57809401.000000
112990416.000000,57846443.000000
112973528.000000,57892870.000000
112949807.000000,57952064.000000
112917930.000000,58027412.000000
112876580.000000,58122298.000000
112824436.000000,58240105.000000
112760179.000000,58384220.000000
112737673.000000,58434588.000000
112691484.000000,58538562.000000
112658116.000000,58615818.000000
112636295.000000,58670260.000000
112624747.000000,58705792.000000
112622199.000000,58726319.000000
112627377.000000,58735744.000000
112638705.000000,58737972.000000
112670748.000000,58726542.000000
112720718.000000,58691841.000000
112789303.000000,58633249.000000
112877197.000000,58550150.000000
112985089.000000,58441925.000000
113078935.000000,58344542.000000
113172504.000000,58247696.000000
113244989.000000,58175754.000000
113297192.000000,58127982.000000
113329913.000000,58103643.000000
113343782.000000,58101705.000000
113356275.000000,58146315.000000
113353016.000000,58204558.000000
113334957.000000,58260787.000000
113333997.000000,58262665.000000
113310231.000000,58295586.000000
113265531.000000,58346161.000000
113204470.000000,58410002.000000
113131619.000000,58482719.000000
113051548.000000,58559926.000000
112968831.000000,58637234.000000
112888037.000000,58710255.000000
112813740.000000,58774601.000000
112750509.000000,58825884.000000
112735071.000000,58837556.000000
112643508.000000,58903705.000000
112571768.000000,58950849.000000
112513882.000000,58981692.000000
112463882.000000,58998939.000000
112415800.000000,59005292.000000
112368039.000000,59003832.000000
112280085.000000,58986876.000000
112220319.000000,58952435.000000
112187612.000000,58899670.000000
112180891.000000,58864313.000000
112185141.000000,58798196.000000
112205820.000000,58707419.000000
112241601.000000,58595976.000000
112291160.000000,58467863.000000
112353171.000000,58327074.000000
112373147.000000,58284751.000000
112424198.000000,58175193.000000
112459263.000000,58091866.000000
112477541.000000,58034629.000000
112478229.000000,58003339.000000
112460525.000000,57997855.000000
112423626.000000,58018033.000000
112366730.000000,58063732.000000
112289034.000000,58134809.000000
112189736.000000,58231121.000000
112171631.000000,58249020.000000
112086553.000000,58333626.000000
112021736.000000,58399493.000000
111973347.000000,58451464.000000
111937554.000000,58494376.000000
111910527.000000,58533071.000000
111888432.000000,58572388.000000
111867439.000000,58617167.000000
111852086.000000,58652624.000000
111796450.000000,58774044.000000
111744621.000000,58865978.000000
111693155.000000,58931860.000000
111638609.000000,58975125.000000
111577539.000000,58999207.000000
111506502.000000,59007541.000000
111496136.000000,59007647.000000
111436935.000000,59002286.000000
111395228.000000,58982745.000000
111376487.000000,58966277.000000
111348502.000000,58933561.000000
111335275.000000,58908788.000000
111335116.000000,58907063.000000
111340663.000000,58884770.000000
111355682.000000,58838217.000000
111377739.000000,58774681.000000
111398970.000000,58716100.000000
111462824.000000,58542980.000000
111335765.000000,58607760.000000
111257204.000000,58643119.000000
111178278.000000,58670823.000000
111116006.000000,58685354.000000
111060821.000000,58696594.000000
111010781.000000,58716882.000000
110954888.000000,58751540.000000
110907818.000000,58786113.000000
110751281.000000,58891209.000000
110599734.000000,58964009.000000
110477584.000000,59000259.000000
110376658.000000,59017696.000000
110294752.000000,59021493.000000
110220040.000000,59011609.000000
110174090.000000,58999201.000000
110084238.000000,58954613.000000
110014046.000000,58885480.000000
109966017.000000,58796276.000000
109956412.000000,58753191.000000
110321127.000000,58753191.000000
110333913.000000,58803979.000000
110339901.000000,58812867.000000
110379236.000000,58835770.000000
110434479.000000,58836113.000000
110497368.000000,58814840.000000
110537854.000000,58790288.000000
110580786.000000,58754574.000000
110627782.000000,58708479.000000
110672186.000000,58659510.000000
110707340.000000,58615172.000000
110726589.000000,58582973.000000
110728348.000000,58575467.000000
110721226.000000,58551833.000000
110703333.000000,58511168.000000
110694639.000000,58493580.000000
110665167.000000,58406521.000000
110666971.000000,58326202.000000
110698993.000000,58256397.000000
110760180.000000,58200883.000000
110779563.000000,58189859.000000
110835071.000000,58170542.000000
110890604.000000,58165915.000000
110933307.000000,58176518.000000
110941986.000000,58183038.000000
110956695.000000,58178491.000000
110977884.000000,58147530.000000
111003269.000000,58096292.000000
111030562.000000,58030910.000000
111057476.000000,57957521.000000
111081726.000000,57882259.000000
111101024.000000,57811261.000000
111113085.000000,57750662.000000
111116006.000000,57716102.000000
111107532.000000,57658850.000000
111081760.000000,57629998.000000
111059425.000000,57625934.000000
110993049.000000,57641451.000000
110916617.000000,57684449.000000
110833405.000000,57751450.000000
110746693.000000,57838974.000000
110659760.000000,57943544.000000
110575882.000000,58061681.000000
110498340.000000,58189907.000000
110460767.000000,58261097.000000
110409496.000000,58373929.000000
110368757.000000,58484757.000000
110339689.000000,58588378.000000
110323433.000000,58679590.000000
110321127.000000,58753191.000000
109956412.000000,58753191.000000
109942652.000000,58691470.000000
Z" /> 
<path style="fill:#000000; fill-opacity:1.0; 
stroke:#000000; stroke-width:1.000000; stroke-opacity:1; 
stroke-linecap:round; stroke-linejoin:round;fill-rule:evenodd;"
d="M 116963306.000000,56483879.000000
117059556.000000,56508841.000000
117136375.000000,56553242.000000
117189718.000000,56613456.000000
117215542.000000,56685855.000000
117217336.000000,56711777.000000
117214715.000000,56736841.000000
117206243.000000,56772734.000000
117191077.000000,56821585.000000
117168373.000000,56885525.000000
117137287.000000,56966682.000000
117096975.000000,57067187.000000
117046594.000000,57189170.000000
116985301.000000,57334759.000000
116912250.000000,57506084.000000
116826600.000000,57705275.000000
116791885.000000,57785683.000000
116677060.000000,58051522.000000
116574110.000000,58290124.000000
116483224.000000,58501044.000000
116404592.000000,58683838.000000
116338405.000000,58838063.000000
116284853.000000,58963275.000000
116244126.000000,59059030.000000
116216416.000000,59124885.000000
116201913.000000,59160394.000000
116200267.000000,59164773.000000
116189786.000000,59181827.000000
116168463.000000,59189074.000000
116127578.000000,59188113.000000
116092410.000000,59184531.000000
115944262.000000,59155970.000000
115821483.000000,59106219.000000
115722605.000000,59034481.000000
115649129.000000,58944704.000000
115611313.000000,58870832.000000
115572129.000000,58768669.000000
115532716.000000,58643539.000000
115494217.000000,58500767.000000
115457770.000000,58345676.000000
115424518.000000,58183592.000000
115395600.000000,58019839.000000
115372158.000000,57859740.000000
115355332.000000,57708622.000000
115346262.000000,57571808.000000
115345095.000000,57525478.000000
115343972.000000,57447351.000000
115342064.000000,57398322.000000
115338250.000000,57373783.000000
115331410.000000,57369126.000000
115320420.000000,57379741.000000
115312222.000000,57390391.000000
115299004.000000,57412698.000000
115272026.000000,57462224.000000
115232773.000000,57536119.000000
115182727.000000,57631537.000000
115123372.000000,57745629.000000
115056191.000000,57875547.000000
114982667.000000,58018442.000000
114904285.000000,58171467.000000
114847544.000000,58282646.000000
114766815.000000,58440897.000000
114690117.000000,58590922.000000
114618908.000000,58729888.000000
114554650.000000,58854962.000000
114498801.000000,58963310.000000
114452820.000000,59052098.000000
114418169.000000,59118495.000000
114396305.000000,59159666.000000
114389378.000000,59171980.000000
114355321.000000,59200822.000000
114301802.000000,59208607.000000
114226069.000000,59195424.000000
114172973.000000,59178930.000000
114082610.000000,59141885.000000
114018269.000000,59100486.000000
113972275.000000,59049499.000000
113963704.000000,59036227.000000
113942257.000000,58995380.000000
113931373.000000,58955800.000000
113932428.000000,58912675.000000
113946797.000000,58861188.000000
113975855.000000,58796527.000000
114020977.000000,58713877.000000
114083538.000000,58608423.000000
114087980.000000,58601094.000000
114194741.000000,58426120.000000
114309341.000000,58240136.000000
114429581.000000,58046596.000000
114553258.000000,57848953.000000
114678173.000000,57650661.000000
114802123.000000,57455174.000000
114922908.000000,57265945.000000
115038328.000000,57086429.000000
115146180.000000,56920079.000000
115244265.000000,56770349.000000
115330380.000000,56640692.000000
115402326.000000,56534563.000000
115433692.000000,56489415.000000
115457676.000000,56481892.000000
115500442.000000,56490006.000000
115552928.000000,56510395.000000
115606073.000000,56539694.000000
115642627.000000,56566981.000000
115669829.000000,56590876.000000
115692439.000000,56612642.000000
115710930.000000,56635515.000000
115725774.000000,56662727.000000
115737444.000000,56697514.000000
115746412.000000,56743109.000000
115753150.000000,56802749.000000
115758132.000000,56879665.000000
115761829.000000,56977094.000000
115764713.000000,57098269.000000
115767258.000000,57246425.000000
115769936.000000,57424796.000000
115770165.000000,57440162.000000
115773692.000000,57649202.000000
115777683.000000,57828216.000000
115782362.000000,57980888.000000
115787953.000000,58110900.000000
115794681.000000,58221937.000000
115802771.000000,58317680.000000
115812448.000000,58401814.000000
115823935.000000,58478021.000000
115837457.000000,58549984.000000
115837991.000000,58552571.000000
115857167.000000,58645272.000000
115951583.000000,58451191.000000
115981434.000000,58389197.000000
116023074.000000,58301807.000000
116074063.000000,58194187.000000
116131964.000000,58071500.000000
116194338.000000,57938911.000000
116258746.000000,57801585.000000
116305721.000000,57701158.000000
116374396.000000,57554840.000000
116446778.000000,57401844.000000
116519633.000000,57248924.000000
116589725.000000,57102834.000000
116653818.000000,56970331.000000
116708678.000000,56858169.000000
116732418.000000,56810256.000000
116899392.000000,56475307.000000
Z" /> 
<path style="fill:#000000; fill-opacity:1.0; 
stroke:#000000; stroke-width:1.000000; stroke-opacity:1; 
stroke-linecap:round; stroke-linejoin:round;fill-rule:evenodd;"
d="M 118147676.000000,58668086.000000
118159142.000000,58611236.000000
118166047.000000,58569997.000000
118167016.000000,58552675.000000
118166796.000000,58552571.000000
118152326.000000,58562686.000000
118117909.000000,58589940.000000
118069325.000000,58629690.000000
118032874.000000,58660044.000000
117904111.000000,58758707.000000
117763743.000000,58850347.000000
117623672.000000,58927609.000000
117533243.000000,58968763.000000
117437779.000000,58998013.000000
117330403.000000,59015443.000000
117223126.000000,59020177.000000
117127959.000000,59011334.000000
117088025.000000,59001336.000000
116980138.000000,58953156.000000
116900679.000000,58887785.000000
116847963.000000,58803176.000000
116820304.000000,58697287.000000
116817632.000000,58673390.000000
116821451.000000,58555167.000000
116851038.000000,58424881.000000
116903597.000000,58288370.000000
116903634.000000,58288301.000000
117335382.000000,58288301.000000
117349426.000000,58288754.000000
117388142.000000,58275518.000000
117446408.000000,58250671.000000
117519100.000000,58216290.000000
117546065.000000,58202861.000000
117678516.000000,58127397.000000
117792860.000000,58044767.000000
117886104.000000,57958119.000000
117955256.000000,57870602.000000
117997326.000000,57785366.000000
118009569.000000,57714965.000000
118007939.000000,57669647.000000
117998650.000000,57648675.000000
117975099.000000,57642703.000000
117958333.000000,57642418.000000
117887195.000000,57657341.000000
117806142.000000,57699915.000000
117718634.000000,57766849.000000
117628130.000000,57854853.000000
117538092.000000,57960636.000000
117451978.000000,58080907.000000
117389101.000000,58183820.000000
117361459.000000,58233973.000000
117342069.000000,58271819.000000
117335382.000000,58288301.000000
116903634.000000,58288301.000000
116976334.000000,58151472.000000
117066452.000000,58020025.000000
117171158.000000,57899869.000000
117202721.000000,57869033.000000
117364287.000000,57735444.000000
117530144.000000,57634574.000000
117699711.000000,57566703.000000
117872404.000000,57532106.000000
117916868.000000,57528642.000000
118036499.000000,57527484.000000
118130357.000000,57539305.000000
118204351.000000,57565566.000000
118264388.000000,57607728.000000
118274012.000000,57616961.000000
118307933.000000,57655411.000000
118324487.000000,57691870.000000
118329611.000000,57741754.000000
118329808.000000,57761821.000000
118321107.000000,57845373.000000
118292729.000000,57922968.000000
118241256.000000,58000911.000000
118163273.000000,58085509.000000
118144928.000000,58103090.000000
118033392.000000,58193657.000000
117905915.000000,58272583.000000
117769777.000000,58336940.000000
117632253.000000,58383798.000000
117500621.000000,58410231.000000
117382157.000000,58413309.000000
117375587.000000,58412683.000000
117285045.000000,58403338.000000
117257740.000000,58497261.000000
117237742.000000,58599759.000000
117239542.000000,58689730.000000
117262511.000000,58761919.000000
117294367.000000,58802204.000000
117328052.000000,58826559.000000
117362722.000000,58836632.000000
117412481.000000,58835719.000000
117430415.000000,58834008.000000
117528352.000000,58811288.000000
117640561.000000,58763766.000000
117762684.000000,58694731.000000
117890362.000000,58607475.000000
118019238.000000,58505288.000000
118144954.000000,58391461.000000
118263151.000000,58269285.000000
118369472.000000,58142050.000000
118398861.000000,58102751.000000
118536316.000000,57936375.000000
118689411.000000,57792372.000000
118853651.000000,57674421.000000
119024538.000000,57586198.000000
119036472.000000,57581295.000000
119141204.000000,57547700.000000
119251818.000000,57527273.000000
119362341.000000,57519622.000000
119466797.000000,57524351.000000
119559212.000000,57541069.000000
119633612.000000,57569381.000000
119684021.000000,57608894.000000
119694537.000000,57624630.000000
119711421.000000,57689519.000000
119699477.000000,57757832.000000
119669903.000000,57807715.000000
119643619.000000,57840614.000000
119637946.000000,57858817.000000
119651754.000000,57873384.000000
119662434.000000,57880640.000000
119683164.000000,57897149.000000
119688233.000000,57915954.000000
119678587.000000,57948766.000000
119669753.000000,57971085.000000
119652694.000000,58010603.000000
119624475.000000,58072952.000000
119588562.000000,58150590.000000
119548424.000000,58235978.000000
119534141.000000,58266041.000000
119478057.000000,58387098.000000
119431032.000000,58495348.000000
119394292.000000,58587483.000000
119369065.000000,58660196.000000
119356578.000000,58710178.000000
119358058.000000,58734122.000000
119360011.000000,58735452.000000
119388165.000000,58730114.000000
119434456.000000,58700009.000000
119499424.000000,58644663.000000
119583611.000000,58563606.000000
119687557.000000,58456365.000000
119721520.000000,58420252.000000
119799653.000000,58336058.000000
119858700.000000,58270128.000000
119903013.000000,58216502.000000
119936947.000000,58169216.000000
119964852.000000,58122309.000000
119991083.000000,58069819.000000
120013629.000000,58020159.000000
120057799.000000,57922714.000000
120109049.000000,57812978.000000
120165266.000000,57695165.000000
120224340.000000,57573487.000000
120284158.000000,57452156.000000
120342610.000000,57335386.000000
120397584.000000,57227389.000000
120446968.000000,57132379.000000
120488652.000000,57054567.000000
120520523.000000,56998167.000000
120540471.000000,56967392.000000
120542374.000000,56965172.000000
120586410.000000,56931609.000000
120642882.000000,56904855.000000
120656894.000000,56900505.000000
120721542.000000,56890412.000000
120789039.000000,56891350.000000
120848086.000000,56902115.000000
120887381.000000,56921503.000000
120891201.000000,56925471.000000
120892617.000000,56937167.000000
120887057.000000,56962415.000000
120873712.000000,57003203.000000
120851768.000000,57061518.000000
120820414.000000,57139346.000000
120778839.000000,57238674.000000
120726230.000000,57361488.000000
120661776.000000,57509777.000000
120584665.000000,57685526.000000
120530204.000000,57809016.000000
120459417.000000,57969879.000000
120392914.000000,58122168.000000
120331927.000000,58262979.000000
120277692.000000,58389407.000000
120231441.000000,58498547.000000
120194410.000000,58587495.000000
120167832.000000,58653345.000000
120152941.000000,58693193.000000
120150113.000000,58703764.000000
120161807.000000,58732511.000000
120179258.000000,58737972.000000
120198369.000000,58726387.000000
120237590.000000,58693702.000000
120293570.000000,58643028.000000
120362961.000000,58577473.000000
120442413.000000,58500146.000000
120528576.000000,58414155.000000
120533554.000000,58409124.000000
120629763.000000,58312012.000000
120705102.000000,58236689.000000
120762288.000000,58180860.000000
120804036.000000,58142229.000000
120833061.000000,58118501.000000
120852080.000000,58107380.000000
120863809.000000,58106571.000000
120870962.000000,58113779.000000
120874250.000000,58121160.000000
120883545.000000,58155444.000000
120882945.000000,58189717.000000
120870131.000000,58227404.000000
120842784.000000,58271926.000000
120798586.000000,58326707.000000
120735218.000000,58395168.000000
120650361.000000,58480733.000000
120591629.000000,58538333.000000
120447694.000000,58674932.000000
120322159.000000,58785928.000000
120213165.000000,58872656.000000
120118847.000000,58936450.000000
120037346.000000,58978647.000000
119966797.000000,59000581.000000
119942543.000000,59003876.000000
119847197.000000,58999201.000000
119771374.000000,58968229.000000
119718459.000000,58914474.000000
119704480.000000,58889382.000000
119699518.000000,58863701.000000
119703618.000000,58827238.000000
119716823.000000,58769797.000000
119719114.000000,58760645.000000
119737538.000000,58693059.000000
119757160.000000,58629927.000000
119771313.000000,58591077.000000
119781150.000000,58565456.000000
119780927.000000,58555282.000000
119767046.000000,58562452.000000
119735910.000000,58588865.000000
119683922.000000,58636417.000000
119682013.000000,58638180.000000
119601051.000000,58709567.000000
119511301.000000,58783082.000000
119420129.000000,58853162.000000
119334898.000000,58914243.000000
119262971.000000,58960762.000000
119232751.000000,58977616.000000
119155096.000000,59005036.000000
119072738.000000,59014214.000000
118996858.000000,59005072.000000
118941289.000000,58979603.000000
118914853.000000,58956217.000000
118901014.000000,58929915.000000
118896061.000000,58889535.000000
118895947.000000,58843222.000000
118897454.000000,58742211.000000
118803246.000000,58815158.000000
118737065.000000,58862072.000000
118658661.000000,58911501.000000
118594044.000000,58947876.000000
118527198.000000,58980268.000000
118473559.000000,58998418.000000
118417922.000000,59006226.000000
118360996.000000,59007647.000000
118296593.000000,59006325.000000
118254983.000000,59000261.000000
118225286.000000,58986309.000000
118196623.000000,58961323.000000
118194913.000000,58959619.000000
118153076.000000,58900867.000000
118133668.000000,58827991.000000
118135548.000000,58750613.000000
118582828.000000,58750613.000000
118596280.000000,58767194.000000
118630180.000000,58770650.000000
118674182.000000,58761571.000000
118713845.000000,58743181.000000
118758235.000000,58713040.000000
118811609.000000,58673191.000000
118867409.000000,58629031.000000
118919077.000000,58585953.000000
118960057.000000,58549353.000000
118983790.000000,58524625.000000
118987140.000000,58518343.000000
118993918.000000,58498420.000000
119012674.000000,58453418.000000
119041040.000000,58388763.000000
119076648.000000,58309879.000000
119105123.000000,58248004.000000
119144310.000000,58163175.000000
119177991.000000,58089641.000000
119203823.000000,58032567.000000
119219466.000000,57997115.000000
119223106.000000,57987856.000000
119208878.000000,57979439.000000
119173704.000000,57965898.000000
119164114.000000,57962657.000000
119122624.000000,57944062.000000
119106173.000000,57926507.000000
119117020.000000,57914608.000000
119139374.000000,57912093.000000
119195525.000000,57901270.000000
119258788.000000,57872698.000000
119321281.000000,57832220.000000
119375120.000000,57785684.000000
119412422.000000,57738933.000000
119425362.000000,57700053.000000
119414687.000000,57654000.000000
119384796.000000,57631764.000000
119338887.000000,57631987.000000
119280160.000000,57653309.000000
119211812.000000,57694370.000000
119137044.000000,57753812.000000
119059054.000000,57830276.000000
119022667.000000,57871155.000000
118955069.000000,57958261.000000
118885508.000000,58061869.000000
118816846.000000,58176259.000000
118751943.000000,58295709.000000
118693659.000000,58414501.000000
118644856.000000,58526913.000000
118608395.000000,58627226.000000
118587136.000000,58709720.000000
118582828.000000,58750613.000000
118135548.000000,58750613.000000
118135900.000000,58736122.000000
Z" /> 
<g >
</g>
<g >
</g>
<g style="fill:#000000; fill-opacity:1.0; 
stroke:#000000; stroke-width:1.000000; stroke-opacity:1; 
stroke-linecap:round; stroke-linejoin:round;">
<path style="fill:#000000; fill-opacity:1.0; 
stroke:#000000; stroke-width:1.000000; stroke-opacity:1; 
stroke-linecap:round; stroke-linejoin:round;fill-rule:evenodd;"
d="M 56849195.000000,5189999.000000
56849195.000000,2810001.000000
59179193.000000,2810001.000000
59179193.000000,5189999.000000
Z" /> 
<path style="fill:#000000; fill-opacity:1.0; 
stroke:#000000; stroke-width:1.000000; stroke-opacity:1; 
stroke-linecap:round; stroke-linejoin:round;fill-rule:evenodd;"
d="M 55249195.000000,5189999.000000
55249195.000000,2810001.000000
56349193.000000,2810001.000000
56349193.000000,5189999.000000
Z" /> 
</g>
<g >
</g>
<g style="fill:#000000; fill-opacity:1.0; 
stroke:#000000; stroke-width:1.000000; stroke-opacity:1; 
stroke-linecap:round; stroke-linejoin:round;">
<path style="fill:#000000; fill-opacity:1.0; 
stroke:#000000; stroke-width:1.000000; stroke-opacity:1; 
stroke-linecap:round; stroke-linejoin:round;fill-rule:evenodd;"
d="M 94849195.000000,59189999.000000
94849195.000000,56810001.000000
97179193.000000,56810001.000000
97179193.000000,59189999.000000
Z" /> 
<path style="fill:#000000; fill-opacity:1.0; 
stroke:#000000; stroke-width:1.000000; stroke-opacity:1; 
stroke-linecap:round; stroke-linejoin:round;fill-rule:evenodd;"
d="M 93249195.000000,59189999.000000
93249195.000000,56810001.000000
94349193.000000,56810001.000000
94349193.000000,59189999.000000
Z" /> 
</g>
<g >
</g>
<g style="fill:#000000; fill-opacity:1.0; 
stroke:#000000; stroke-width:1.000000; stroke-opacity:1; 
stroke-linecap:round; stroke-linejoin:round;">
<path style="fill:#000000; fill-opacity:1.0; 
stroke:#000000; stroke-width:1.000000; stroke-opacity:1; 
stroke-linecap:round; stroke-linejoin:round;fill-rule:evenodd;"
d="M 80753839.000000,58725000.000000
80769063.000000,58648463.000000
80812418.000000,58583579.000000
80877302.000000,58540224.000000
80953839.000000,58525000.000000
81353839.000000,58525000.000000
81430376.000000,58540224.000000
81495260.000000,58583579.000000
81538615.000000,58648463.000000
81553839.000000,58725000.000000
81553839.000000,59275000.000000
81538615.000000,59351537.000000
81495260.000000,59416421.000000
81430376.000000,59459776.000000
81353839.000000,59475000.000000
80953839.000000,59475000.000000
80877302.000000,59459776.000000
80812418.000000,59416421.000000
80769063.000000,59351537.000000
80753839.000000,59275000.000000
Z" /> 
<path style="fill:#000000; fill-opacity:1.0; 
stroke:#000000; stroke-width:1.000000; stroke-opacity:1; 
stroke-linecap:round; stroke-linejoin:round;fill-rule:evenodd;"
d="M 82403839.000000,58725000.000000
82419063.000000,58648463.000000
82462418.000000,58583579.000000
82527302.000000,58540224.000000
82603839.000000,58525000.000000
83003839.000000,58525000.000000
83080376.000000,58540224.000000
83145260.000000,58583579.000000
83188615.000000,58648463.000000
83203839.000000,58725000.000000
83203839.000000,59275000.000000
83188615.000000,59351537.000000
83145260.000000,59416421.000000
83080376.000000,59459776.000000
83003839.000000,59475000.000000
82603839.000000,59475000.000000
82527302.000000,59459776.000000
82462418.000000,59416421.000000
82419063.000000,59351537.000000
82403839.000000,59275000.000000
Z" /> 
</g>
<g >
</g>
<g style="fill:#000000; fill-opacity:1.0; 
stroke:#000000; stroke-width:1.000000; stroke-opacity:1; 
stroke-linecap:round; stroke-linejoin:round;">
<path style="fill:#000000; fill-opacity:1.0; 
stroke:#000000; stroke-width:1.000000; stroke-opacity:1; 
stroke-linecap:round; stroke-linejoin:round;fill-rule:evenodd;"
d="M 118289194.000000,26775000.000000
118365731.000000,26790224.000000
118430615.000000,26833579.000000
118473970.000000,26898463.000000
118489194.000000,26975000.000000
118489194.000000,27375000.000000
118473970.000000,27451537.000000
118430615.000000,27516421.000000
118365731.000000,27559776.000000
118289194.000000,27575000.000000
117739194.000000,27575000.000000
117662657.000000,27559776.000000
117597773.000000,27516421.000000
117554418.000000,27451537.000000
117539194.000000,27375000.000000
117539194.000000,26975000.000000
117554418.000000,26898463.000000
117597773.000000,26833579.000000
117662657.000000,26790224.000000
117739194.000000,26775000.000000
Z" /> 
<path style="fill:#000000; fill-opacity:1.0; 
stroke:#000000; stroke-width:1.000000; stroke-opacity:1; 
stroke-linecap:round; stroke-linejoin:round;fill-rule:evenodd;"
d="M 118289194.000000,28425000.000000
118365731.000000,28440224.000000
118430615.000000,28483579.000000
118473970.000000,28548463.000000
118489194.000000,28625000.000000
118489194.000000,29025000.000000
118473970.000000,29101537.000000
118430615.000000,29166421.000000
118365731.000000,29209776.000000
118289194.000000,29225000.000000
117739194.000000,29225000.000000
117662657.000000,29209776.000000
117597773.000000,29166421.000000
117554418.000000,29101537.000000
117539194.000000,29025000.000000
117539194.000000,28625000.000000
117554418.000000,28548463.000000
117597773.000000,28483579.000000
117662657.000000,28440224.000000
117739194.000000,28425000.000000
Z" /> 
</g>
<g >
</g>
<g style="fill:#000000; fill-opacity:1.0; 
stroke:#000000; stroke-width:1.000000; stroke-opacity:1; 
stroke-linecap:round; stroke-linejoin:round;">
<path style="fill:#000000; fill-opacity:1.0; 
stroke:#000000; stroke-width:1.000000; stroke-opacity:1; 
stroke-linecap:round; stroke-linejoin:round;fill-rule:evenodd;"
d="M 37849195.000000,5189999.000000
37849195.000000,2810001.000000
40179193.000000,2810001.000000
40179193.000000,5189999.000000
Z" /> 
<path style="fill:#000000; fill-opacity:1.0; 
stroke:#000000; stroke-width:1.000000; stroke-opacity:1; 
stroke-linecap:round; stroke-linejoin:round;fill-rule:evenodd;"
d="M 36249195.000000,5189999.000000
36249195.000000,2810001.000000
37349193.000000,2810001.000000
37349193.000000,5189999.000000
Z" /> 
</g>
<g >
</g>
<g style="fill:#000000; fill-opacity:1.0; 
stroke:#000000; stroke-width:1.000000; stroke-opacity:1; 
stroke-linecap:round; stroke-linejoin:round;">
<path style="fill:#000000; fill-opacity:1.0; 
stroke:#000000; stroke-width:1.000000; stroke-opacity:1; 
stroke-linecap:round; stroke-linejoin:round;fill-rule:evenodd;"
d="M 6066607.000000,35775000.000000
6143144.000000,35790224.000000
6208028.000000,35833579.000000
6251383.000000,35898463.000000
6266607.000000,35975000.000000
6266607.000000,36375000.000000
6251383.000000,36451537.000000
6208028.000000,36516421.000000
6143144.000000,36559776.000000
6066607.000000,36575000.000000
5516607.000000,36575000.000000
5440070.000000,36559776.000000
5375186.000000,36516421.000000
5331831.000000,36451537.000000
5316607.000000,36375000.000000
5316607.000000,35975000.000000
5331831.000000,35898463.000000
5375186.000000,35833579.000000
5440070.000000,35790224.000000
5516607.000000,35775000.000000
Z" /> 
<path style="fill:#000000; fill-opacity:1.0; 
stroke:#000000; stroke-width:1.000000; stroke-opacity:1; 
stroke-linecap:round; stroke-linejoin:round;fill-rule:evenodd;"
d="M 6066607.000000,37425000.000000
6143144.000000,37440224.000000
6208028.000000,37483579.000000
6251383.000000,37548463.000000
6266607.000000,37625000.000000
6266607.000000,38025000.000000
6251383.000000,38101537.000000
6208028.000000,38166421.000000
6143144.000000,38209776.000000
6066607.000000,38225000.000000
5516607.000000,38225000.000000
5440070.000000,38209776.000000
5375186.000000,38166421.000000
5331831.000000,38101537.000000
5316607.000000,38025000.000000
5316607.000000,37625000.000000
5331831.000000,37548463.000000
5375186.000000,37483579.000000
5440070.000000,37440224.000000
5516607.000000,37425000.000000
Z" /> 
</g>
<g >
</g>
<g style="fill:#000000; fill-opacity:1.0; 
stroke:#000000; stroke-width:1.000000; stroke-opacity:1; 
stroke-linecap:round; stroke-linejoin:round;">
<path style="fill:#000000; fill-opacity:1.0; 
stroke:#000000; stroke-width:1.000000; stroke-opacity:1; 
stroke-linecap:round; stroke-linejoin:round;fill-rule:evenodd;"
d="M 56849195.000000,59189999.000000
56849195.000000,56810001.000000
59179193.000000,56810001.000000
59179193.000000,59189999.000000
Z" /> 
<path style="fill:#000000; fill-opacity:1.0; 
stroke:#000000; stroke-width:1.000000; stroke-opacity:1; 
stroke-linecap:round; stroke-linejoin:round;fill-rule:evenodd;"
d="M 55249195.000000,59189999.000000
55249195.000000,56810001.000000
56349193.000000,56810001.000000
56349193.000000,59189999.000000
Z" /> 
</g>
<g >
</g>
<g style="fill:#000000; fill-opacity:1.0; 
stroke:#000000; stroke-width:1.000000; stroke-opacity:1; 
stroke-linecap:round; stroke-linejoin:round;">
<path style="fill:#000000; fill-opacity:1.0; 
stroke:#000000; stroke-width:1.000000; stroke-opacity:1; 
stroke-linecap:round; stroke-linejoin:round;fill-rule:evenodd;"
d="M 42464194.000000,2725000.000000
42479418.000000,2648463.000000
42522773.000000,2583579.000000
42587657.000000,2540224.000000
42664194.000000,2525000.000000
43064194.000000,2525000.000000
43140731.000000,2540224.000000
43205615.000000,2583579.000000
43248970.000000,2648463.000000
43264194.000000,2725000.000000
43264194.000000,3275000.000000
43248970.000000,3351537.000000
43205615.000000,3416421.000000
43140731.000000,3459776.000000
43064194.000000,3475000.000000
42664194.000000,3475000.000000
42587657.000000,3459776.000000
42522773.000000,3416421.000000
42479418.000000,3351537.000000
42464194.000000,3275000.000000
Z" /> 
<path style="fill:#000000; fill-opacity:1.0; 
stroke:#000000; stroke-width:1.000000; stroke-opacity:1; 
stroke-linecap:round; stroke-linejoin:round;fill-rule:evenodd;"
d="M 44114194.000000,2725000.000000
44129418.000000,2648463.000000
44172773.000000,2583579.000000
44237657.000000,2540224.000000
44314194.000000,2525000.000000
44714194.000000,2525000.000000
44790731.000000,2540224.000000
44855615.000000,2583579.000000
44898970.000000,2648463.000000
44914194.000000,2725000.000000
44914194.000000,3275000.000000
44898970.000000,3351537.000000
44855615.000000,3416421.000000
44790731.000000,3459776.000000
44714194.000000,3475000.000000
44314194.000000,3475000.000000
44237657.000000,3459776.000000
44172773.000000,3416421.000000
44129418.000000,3351537.000000
44114194.000000,3275000.000000
Z" /> 
</g>
<g >
</g>
<g style="fill:#000000; fill-opacity:1.0; 
stroke:#000000; stroke-width:1.000000; stroke-opacity:1; 
stroke-linecap:round; stroke-linejoin:round;">
<path style="fill:#000000; fill-opacity:1.0; 
stroke:#000000; stroke-width:1.000000; stroke-opacity:1; 
stroke-linecap:round; stroke-linejoin:round;fill-rule:evenodd;"
d="M 94849195.000000,5189999.000000
94849195.000000,2810001.000000
97179193.000000,2810001.000000
97179193.000000,5189999.000000
Z" /> 
<path style="fill:#000000; fill-opacity:1.0; 
stroke:#000000; stroke-width:1.000000; stroke-opacity:1; 
stroke-linecap:round; stroke-linejoin:round;fill-rule:evenodd;"
d="M 93249195.000000,5189999.000000
93249195.000000,2810001.000000
94349193.000000,2810001.000000
94349193.000000,5189999.000000
Z" /> 
</g>
<g >
</g>
<g style="fill:#000000; fill-opacity:1.0; 
stroke:#000000; stroke-width:1.000000; stroke-opacity:1; 
stroke-linecap:round; stroke-linejoin:round;">
<path style="fill:#000000; fill-opacity:1.0; 
stroke:#000000; stroke-width:1.000000; stroke-opacity:1; 
stroke-linecap:round; stroke-linejoin:round;fill-rule:evenodd;"
d="M 29349195.000000,5189999.000000
29349195.000000,2810001.000000
31679193.000000,2810001.000000
31679193.000000,5189999.000000
Z" /> 
<path style="fill:#000000; fill-opacity:1.0; 
stroke:#000000; stroke-width:1.000000; stroke-opacity:1; 
stroke-linecap:round; stroke-linejoin:round;fill-rule:evenodd;"
d="M 27749195.000000,5189999.000000
27749195.000000,2810001.000000
28849193.000000,2810001.000000
28849193.000000,5189999.000000
Z" /> 
</g>
<g >
</g>
<g style="fill:#000000; fill-opacity:1.0; 
stroke:#000000; stroke-width:1.000000; stroke-opacity:1; 
stroke-linecap:round; stroke-linejoin:round;">
<path style="fill:#000000; fill-opacity:1.0; 
stroke:#000000; stroke-width:1.000000; stroke-opacity:1; 
stroke-linecap:round; stroke-linejoin:round;fill-rule:evenodd;"
d="M 4289194.000000,8775000.000000
4365731.000000,8790224.000000
4430615.000000,8833579.000000
4473970.000000,8898463.000000
4489194.000000,8975000.000000
4489194.000000,9375000.000000
4473970.000000,9451537.000000
4430615.000000,9516421.000000
4365731.000000,9559776.000000
4289194.000000,9575000.000000
3739194.000000,9575000.000000
3662657.000000,9559776.000000
3597773.000000,9516421.000000
3554418.000000,9451537.000000
3539194.000000,9375000.000000
3539194.000000,8975000.000000
3554418.000000,8898463.000000
3597773.000000,8833579.000000
3662657.000000,8790224.000000
3739194.000000,8775000.000000
Z" /> 
<path style="fill:#000000; fill-opacity:1.0; 
stroke:#000000; stroke-width:1.000000; stroke-opacity:1; 
stroke-linecap:round; stroke-linejoin:round;fill-rule:evenodd;"
d="M 4289194.000000,10425000.000000
4365731.000000,10440224.000000
4430615.000000,10483579.000000
4473970.000000,10548463.000000
4489194.000000,10625000.000000
4489194.000000,11025000.000000
4473970.000000,11101537.000000
4430615.000000,11166421.000000
4365731.000000,11209776.000000
4289194.000000,11225000.000000
3739194.000000,11225000.000000
3662657.000000,11209776.000000
3597773.000000,11166421.000000
3554418.000000,11101537.000000
3539194.000000,11025000.000000
3539194.000000,10625000.000000
3554418.000000,10548463.000000
3597773.000000,10483579.000000
3662657.000000,10440224.000000
3739194.000000,10425000.000000
Z" /> 
</g>
<g >
</g>
<g style="fill:#000000; fill-opacity:1.0; 
stroke:#000000; stroke-width:1.000000; stroke-opacity:1; 
stroke-linecap:round; stroke-linejoin:round;">
<path style="fill:#000000; fill-opacity:1.0; 
stroke:#000000; stroke-width:1.000000; stroke-opacity:1; 
stroke-linecap:round; stroke-linejoin:round;fill-rule:evenodd;"
d="M 117824195.000000,21835001.000000
120204193.000000,21835001.000000
120204193.000000,24164999.000000
117824195.000000,24164999.000000
Z" /> 
<path style="fill:#000000; fill-opacity:1.0; 
stroke:#000000; stroke-width:1.000000; stroke-opacity:1; 
stroke-linecap:round; stroke-linejoin:round;fill-rule:evenodd;"
d="M 117824195.000000,20235001.000000
120204193.000000,20235001.000000
120204193.000000,21334999.000000
117824195.000000,21334999.000000
Z" /> 
</g>
<g >
</g>
<g style="fill:#000000; fill-opacity:1.0; 
stroke:#000000; stroke-width:1.000000; stroke-opacity:1; 
stroke-linecap:round; stroke-linejoin:round;">
<path style="fill:#000000; fill-opacity:1.0; 
stroke:#000000; stroke-width:1.000000; stroke-opacity:1; 
stroke-linecap:round; stroke-linejoin:round;fill-rule:evenodd;"
d="M 29349195.000000,59189999.000000
29349195.000000,56810001.000000
31679193.000000,56810001.000000
31679193.000000,59189999.000000
Z" /> 
<path style="fill:#000000; fill-opacity:1.0; 
stroke:#000000; stroke-width:1.000000; stroke-opacity:1; 
stroke-linecap:round; stroke-linejoin:round;fill-rule:evenodd;"
d="M 27749195.000000,59189999.000000
27749195.000000,56810001.000000
28849193.000000,56810001.000000
28849193.000000,59189999.000000
Z" /> 
</g>
<g >
</g>
<g style="fill:#000000; fill-opacity:1.0; 
stroke:#000000; stroke-width:1.000000; stroke-opacity:1; 
stroke-linecap:round; stroke-linejoin:round;">
<path style="fill:#000000; fill-opacity:1.0; 
stroke:#000000; stroke-width:1.000000; stroke-opacity:1; 
stroke-linecap:round; stroke-linejoin:round;fill-rule:evenodd;"
d="M 66349195.000000,59189999.000000
66349195.000000,56810001.000000
68679193.000000,56810001.000000
68679193.000000,59189999.000000
Z" /> 
<path style="fill:#000000; fill-opacity:1.0; 
stroke:#000000; stroke-width:1.000000; stroke-opacity:1; 
stroke-linecap:round; stroke-linejoin:round;fill-rule:evenodd;"
d="M 64749195.000000,59189999.000000
64749195.000000,56810001.000000
65849193.000000,56810001.000000
65849193.000000,59189999.000000
Z" /> 
</g>
<g >
</g>
<g style="fill:#000000; fill-opacity:1.0; 
stroke:#000000; stroke-width:1.000000; stroke-opacity:1; 
stroke-linecap:round; stroke-linejoin:round;">
<path style="fill:#000000; fill-opacity:1.0; 
stroke:#000000; stroke-width:1.000000; stroke-opacity:1; 
stroke-linecap:round; stroke-linejoin:round;fill-rule:evenodd;"
d="M 19349195.000000,59189999.000000
19349195.000000,56810001.000000
21679193.000000,56810001.000000
21679193.000000,59189999.000000
Z" /> 
<path style="fill:#000000; fill-opacity:1.0; 
stroke:#000000; stroke-width:1.000000; stroke-opacity:1; 
stroke-linecap:round; stroke-linejoin:round;fill-rule:evenodd;"
d="M 17749195.000000,59189999.000000
17749195.000000,56810001.000000
18849193.000000,56810001.000000
18849193.000000,59189999.000000
Z" /> 
</g>
<g >
</g>
<g style="fill:#000000; fill-opacity:1.0; 
stroke:#000000; stroke-width:1.000000; stroke-opacity:1; 
stroke-linecap:round; stroke-linejoin:round;">
<path style="fill:#000000; fill-opacity:1.0; 
stroke:#000000; stroke-width:1.000000; stroke-opacity:1; 
stroke-linecap:round; stroke-linejoin:round;fill-rule:evenodd;"
d="M 52253839.000000,56725000.000000
52269063.000000,56648463.000000
52312418.000000,56583579.000000
52377302.000000,56540224.000000
52453839.000000,56525000.000000
52853839.000000,56525000.000000
52930376.000000,56540224.000000
52995260.000000,56583579.000000
53038615.000000,56648463.000000
53053839.000000,56725000.000000
53053839.000000,57275000.000000
53038615.000000,57351537.000000
52995260.000000,57416421.000000
52930376.000000,57459776.000000
52853839.000000,57475000.000000
52453839.000000,57475000.000000
52377302.000000,57459776.000000
52312418.000000,57416421.000000
52269063.000000,57351537.000000
52253839.000000,57275000.000000
Z" /> 
<path style="fill:#000000; fill-opacity:1.0; 
stroke:#000000; stroke-width:1.000000; stroke-opacity:1; 
stroke-linecap:round; stroke-linejoin:round;fill-rule:evenodd;"
d="M 53903839.000000,56725000.000000
53919063.000000,56648463.000000
53962418.000000,56583579.000000
54027302.000000,56540224.000000
54103839.000000,56525000.000000
54503839.000000,56525000.000000
54580376.000000,56540224.000000
54645260.000000,56583579.000000
54688615.000000,56648463.000000
54703839.000000,56725000.000000
54703839.000000,57275000.000000
54688615.000000,57351537.000000
54645260.000000,57416421.000000
54580376.000000,57459776.000000
54503839.000000,57475000.000000
54103839.000000,57475000.000000
54027302.000000,57459776.000000
53962418.000000,57416421.000000
53919063.000000,57351537.000000
53903839.000000,57275000.000000
Z" /> 
</g>
<g >
</g>
<g style="fill:#000000; fill-opacity:1.0; 
stroke:#000000; stroke-width:1.000000; stroke-opacity:1; 
stroke-linecap:round; stroke-linejoin:round;">
<path style="fill:#000000; fill-opacity:1.0; 
stroke:#000000; stroke-width:1.000000; stroke-opacity:1; 
stroke-linecap:round; stroke-linejoin:round;fill-rule:evenodd;"
d="M 117824195.000000,49635001.000000
120204193.000000,49635001.000000
120204193.000000,51964999.000000
117824195.000000,51964999.000000
Z" /> 
<path style="fill:#000000; fill-opacity:1.0; 
stroke:#000000; stroke-width:1.000000; stroke-opacity:1; 
stroke-linecap:round; stroke-linejoin:round;fill-rule:evenodd;"
d="M 117824195.000000,48035001.000000
120204193.000000,48035001.000000
120204193.000000,49134999.000000
117824195.000000,49134999.000000
Z" /> 
</g>
<g >
</g>
<g style="fill:#000000; fill-opacity:1.0; 
stroke:#000000; stroke-width:1.000000; stroke-opacity:1; 
stroke-linecap:round; stroke-linejoin:round;">
<path style="fill:#000000; fill-opacity:1.0; 
stroke:#000000; stroke-width:1.000000; stroke-opacity:1; 
stroke-linecap:round; stroke-linejoin:round;fill-rule:evenodd;"
d="M 3824195.000000,49635001.000000
6204193.000000,49635001.000000
6204193.000000,51964999.000000
3824195.000000,51964999.000000
Z" /> 
<path style="fill:#000000; fill-opacity:1.0; 
stroke:#000000; stroke-width:1.000000; stroke-opacity:1; 
stroke-linecap:round; stroke-linejoin:round;fill-rule:evenodd;"
d="M 3824195.000000,48035001.000000
6204193.000000,48035001.000000
6204193.000000,49134999.000000
3824195.000000,49134999.000000
Z" /> 
</g>
<g >
</g>
<g style="fill:#000000; fill-opacity:1.0; 
stroke:#000000; stroke-width:1.000000; stroke-opacity:1; 
stroke-linecap:round; stroke-linejoin:round;">
<path style="fill:#000000; fill-opacity:1.0; 
stroke:#000000; stroke-width:1.000000; stroke-opacity:1; 
stroke-linecap:round; stroke-linejoin:round;fill-rule:evenodd;"
d="M 14464194.000000,4725000.000000
14479418.000000,4648463.000000
14522773.000000,4583579.000000
14587657.000000,4540224.000000
14664194.000000,4525000.000000
15064194.000000,4525000.000000
15140731.000000,4540224.000000
15205615.000000,4583579.000000
15248970.000000,4648463.000000
15264194.000000,4725000.000000
15264194.000000,5275000.000000
15248970.000000,5351537.000000
15205615.000000,5416421.000000
15140731.000000,5459776.000000
15064194.000000,5475000.000000
14664194.000000,5475000.000000
14587657.000000,5459776.000000
14522773.000000,5416421.000000
14479418.000000,5351537.000000
14464194.000000,5275000.000000
Z" /> 
<path style="fill:#000000; fill-opacity:1.0; 
stroke:#000000; stroke-width:1.000000; stroke-opacity:1; 
stroke-linecap:round; stroke-linejoin:round;fill-rule:evenodd;"
d="M 16114194.000000,4725000.000000
16129418.000000,4648463.000000
16172773.000000,4583579.000000
16237657.000000,4540224.000000
16314194.000000,4525000.000000
16714194.000000,4525000.000000
16790731.000000,4540224.000000
16855615.000000,4583579.000000
16898970.000000,4648463.000000
16914194.000000,4725000.000000
16914194.000000,5275000.000000
16898970.000000,5351537.000000
16855615.000000,5416421.000000
16790731.000000,5459776.000000
16714194.000000,5475000.000000
16314194.000000,5475000.000000
16237657.000000,5459776.000000
16172773.000000,5416421.000000
16129418.000000,5351537.000000
16114194.000000,5275000.000000
Z" /> 
</g>
<g >
</g>
<g style="fill:#000000; fill-opacity:1.0; 
stroke:#000000; stroke-width:1.000000; stroke-opacity:1; 
stroke-linecap:round; stroke-linejoin:round;">
<path style="fill:#000000; fill-opacity:1.0; 
stroke:#000000; stroke-width:1.000000; stroke-opacity:1; 
stroke-linecap:round; stroke-linejoin:round;fill-rule:evenodd;"
d="M 52253839.000000,58725000.000000
52269063.000000,58648463.000000
52312418.000000,58583579.000000
52377302.000000,58540224.000000
52453839.000000,58525000.000000
52853839.000000,58525000.000000
52930376.000000,58540224.000000
52995260.000000,58583579.000000
53038615.000000,58648463.000000
53053839.000000,58725000.000000
53053839.000000,59275000.000000
53038615.000000,59351537.000000
52995260.000000,59416421.000000
52930376.000000,59459776.000000
52853839.000000,59475000.000000
52453839.000000,59475000.000000
52377302.000000,59459776.000000
52312418.000000,59416421.000000
52269063.000000,59351537.000000
52253839.000000,59275000.000000
Z" /> 
<path style="fill:#000000; fill-opacity:1.0; 
stroke:#000000; stroke-width:1.000000; stroke-opacity:1; 
stroke-linecap:round; stroke-linejoin:round;fill-rule:evenodd;"
d="M 53903839.000000,58725000.000000
53919063.000000,58648463.000000
53962418.000000,58583579.000000
54027302.000000,58540224.000000
54103839.000000,58525000.000000
54503839.000000,58525000.000000
54580376.000000,58540224.000000
54645260.000000,58583579.000000
54688615.000000,58648463.000000
54703839.000000,58725000.000000
54703839.000000,59275000.000000
54688615.000000,59351537.000000
54645260.000000,59416421.000000
54580376.000000,59459776.000000
54503839.000000,59475000.000000
54103839.000000,59475000.000000
54027302.000000,59459776.000000
53962418.000000,59416421.000000
53919063.000000,59351537.000000
53903839.000000,59275000.000000
Z" /> 
</g>
<g >
</g>
<g style="fill:#000000; fill-opacity:1.0; 
stroke:#000000; stroke-width:1.000000; stroke-opacity:1; 
stroke-linecap:round; stroke-linejoin:round;">
<path style="fill:#000000; fill-opacity:1.0; 
stroke:#000000; stroke-width:1.000000; stroke-opacity:1; 
stroke-linecap:round; stroke-linejoin:round;fill-rule:evenodd;"
d="M 19149195.000000,5189999.000000
19149195.000000,2810001.000000
21479193.000000,2810001.000000
21479193.000000,5189999.000000
Z" /> 
<path style="fill:#000000; fill-opacity:1.0; 
stroke:#000000; stroke-width:1.000000; stroke-opacity:1; 
stroke-linecap:round; stroke-linejoin:round;fill-rule:evenodd;"
d="M 17549195.000000,5189999.000000
17549195.000000,2810001.000000
18649193.000000,2810001.000000
18649193.000000,5189999.000000
Z" /> 
</g>
<g >
</g>
<g style="fill:#000000; fill-opacity:1.0; 
stroke:#000000; stroke-width:1.000000; stroke-opacity:1; 
stroke-linecap:round; stroke-linejoin:round;">
<path style="fill:#000000; fill-opacity:1.0; 
stroke:#000000; stroke-width:1.000000; stroke-opacity:1; 
stroke-linecap:round; stroke-linejoin:round;fill-rule:evenodd;"
d="M 47349195.000000,5189999.000000
47349195.000000,2810001.000000
49679193.000000,2810001.000000
49679193.000000,5189999.000000
Z" /> 
<path style="fill:#000000; fill-opacity:1.0; 
stroke:#000000; stroke-width:1.000000; stroke-opacity:1; 
stroke-linecap:round; stroke-linejoin:round;fill-rule:evenodd;"
d="M 45749195.000000,5189999.000000
45749195.000000,2810001.000000
46849193.000000,2810001.000000
46849193.000000,5189999.000000
Z" /> 
</g>
<g >
</g>
<g style="fill:#000000; fill-opacity:1.0; 
stroke:#000000; stroke-width:1.000000; stroke-opacity:1; 
stroke-linecap:round; stroke-linejoin:round;">
<path style="fill:#000000; fill-opacity:1.0; 
stroke:#000000; stroke-width:1.000000; stroke-opacity:1; 
stroke-linecap:round; stroke-linejoin:round;fill-rule:evenodd;"
d="M 3824195.000000,31335001.000000
6204193.000000,31335001.000000
6204193.000000,33664999.000000
3824195.000000,33664999.000000
Z" /> 
<path style="fill:#000000; fill-opacity:1.0; 
stroke:#000000; stroke-width:1.000000; stroke-opacity:1; 
stroke-linecap:round; stroke-linejoin:round;fill-rule:evenodd;"
d="M 3824195.000000,29735001.000000
6204193.000000,29735001.000000
6204193.000000,30834999.000000
3824195.000000,30834999.000000
Z" /> 
</g>
<g >
</g>
<g style="fill:#000000; fill-opacity:1.0; 
stroke:#000000; stroke-width:1.000000; stroke-opacity:1; 
stroke-linecap:round; stroke-linejoin:round;">
<path style="fill:#000000; fill-opacity:1.0; 
stroke:#000000; stroke-width:1.000000; stroke-opacity:1; 
stroke-linecap:round; stroke-linejoin:round;fill-rule:evenodd;"
d="M 75849195.000000,5189999.000000
75849195.000000,2810001.000000
78179193.000000,2810001.000000
78179193.000000,5189999.000000
Z" /> 
<path style="fill:#000000; fill-opacity:1.0; 
stroke:#000000; stroke-width:1.000000; stroke-opacity:1; 
stroke-linecap:round; stroke-linejoin:round;fill-rule:evenodd;"
d="M 74249195.000000,5189999.000000
74249195.000000,2810001.000000
75349193.000000,2810001.000000
75349193.000000,5189999.000000
Z" /> 
</g>
<g >
</g>
<g style="fill:#000000; fill-opacity:1.0; 
stroke:#000000; stroke-width:1.000000; stroke-opacity:1; 
stroke-linecap:round; stroke-linejoin:round;">
<path style="fill:#000000; fill-opacity:1.0; 
stroke:#000000; stroke-width:1.000000; stroke-opacity:1; 
stroke-linecap:round; stroke-linejoin:round;fill-rule:evenodd;"
d="M 3824195.000000,13335001.000000
6204193.000000,13335001.000000
6204193.000000,15664999.000000
3824195.000000,15664999.000000
Z" /> 
<path style="fill:#000000; fill-opacity:1.0; 
stroke:#000000; stroke-width:1.000000; stroke-opacity:1; 
stroke-linecap:round; stroke-linejoin:round;fill-rule:evenodd;"
d="M 3824195.000000,11735001.000000
6204193.000000,11735001.000000
6204193.000000,12834999.000000
3824195.000000,12834999.000000
Z" /> 
</g>
<g >
</g>
<g style="fill:#000000; fill-opacity:1.0; 
stroke:#000000; stroke-width:1.000000; stroke-opacity:1; 
stroke-linecap:round; stroke-linejoin:round;">
<path style="fill:#000000; fill-opacity:1.0; 
stroke:#000000; stroke-width:1.000000; stroke-opacity:1; 
stroke-linecap:round; stroke-linejoin:round;fill-rule:evenodd;"
d="M 4566607.000000,35775000.000000
4643144.000000,35790224.000000
4708028.000000,35833579.000000
4751383.000000,35898463.000000
4766607.000000,35975000.000000
4766607.000000,36375000.000000
4751383.000000,36451537.000000
4708028.000000,36516421.000000
4643144.000000,36559776.000000
4566607.000000,36575000.000000
4016607.000000,36575000.000000
3940070.000000,36559776.000000
3875186.000000,36516421.000000
3831831.000000,36451537.000000
3816607.000000,36375000.000000
3816607.000000,35975000.000000
3831831.000000,35898463.000000
3875186.000000,35833579.000000
3940070.000000,35790224.000000
4016607.000000,35775000.000000
Z" /> 
<path style="fill:#000000; fill-opacity:1.0; 
stroke:#000000; stroke-width:1.000000; stroke-opacity:1; 
stroke-linecap:round; stroke-linejoin:round;fill-rule:evenodd;"
d="M 4566607.000000,37425000.000000
4643144.000000,37440224.000000
4708028.000000,37483579.000000
4751383.000000,37548463.000000
4766607.000000,37625000.000000
4766607.000000,38025000.000000
4751383.000000,38101537.000000
4708028.000000,38166421.000000
4643144.000000,38209776.000000
4566607.000000,38225000.000000
4016607.000000,38225000.000000
3940070.000000,38209776.000000
3875186.000000,38166421.000000
3831831.000000,38101537.000000
3816607.000000,38025000.000000
3816607.000000,37625000.000000
3831831.000000,37548463.000000
3875186.000000,37483579.000000
3940070.000000,37440224.000000
4016607.000000,37425000.000000
Z" /> 
</g>
<g >
</g>
<g style="fill:#000000; fill-opacity:1.0; 
stroke:#000000; stroke-width:1.000000; stroke-opacity:1; 
stroke-linecap:round; stroke-linejoin:round;">
<path style="fill:#000000; fill-opacity:1.0; 
stroke:#000000; stroke-width:1.000000; stroke-opacity:1; 
stroke-linecap:round; stroke-linejoin:round;fill-rule:evenodd;"
d="M 85349195.000000,59189999.000000
85349195.000000,56810001.000000
87679193.000000,56810001.000000
87679193.000000,59189999.000000
Z" /> 
<path style="fill:#000000; fill-opacity:1.0; 
stroke:#000000; stroke-width:1.000000; stroke-opacity:1; 
stroke-linecap:round; stroke-linejoin:round;fill-rule:evenodd;"
d="M 83749195.000000,59189999.000000
83749195.000000,56810001.000000
84849193.000000,56810001.000000
84849193.000000,59189999.000000
Z" /> 
</g>
<g >
</g>
<g style="fill:#000000; fill-opacity:1.0; 
stroke:#000000; stroke-width:1.000000; stroke-opacity:1; 
stroke-linecap:round; stroke-linejoin:round;">
<path style="fill:#000000; fill-opacity:1.0; 
stroke:#000000; stroke-width:1.000000; stroke-opacity:1; 
stroke-linecap:round; stroke-linejoin:round;fill-rule:evenodd;"
d="M 104349195.000000,5189999.000000
104349195.000000,2810001.000000
106679193.000000,2810001.000000
106679193.000000,5189999.000000
Z" /> 
<path style="fill:#000000; fill-opacity:1.0; 
stroke:#000000; stroke-width:1.000000; stroke-opacity:1; 
stroke-linecap:round; stroke-linejoin:round;fill-rule:evenodd;"
d="M 102749195.000000,5189999.000000
102749195.000000,2810001.000000
103849193.000000,2810001.000000
103849193.000000,5189999.000000
Z" /> 
</g>
<g >
</g>
<g style="fill:#000000; fill-opacity:1.0; 
stroke:#000000; stroke-width:1.000000; stroke-opacity:1; 
stroke-linecap:round; stroke-linejoin:round;">
<path style="fill:#000000; fill-opacity:1.0; 
stroke:#000000; stroke-width:1.000000; stroke-opacity:1; 
stroke-linecap:round; stroke-linejoin:round;fill-rule:evenodd;"
d="M 117824195.000000,31335001.000000
120204193.000000,31335001.000000
120204193.000000,33664999.000000
117824195.000000,33664999.000000
Z" /> 
<path style="fill:#000000; fill-opacity:1.0; 
stroke:#000000; stroke-width:1.000000; stroke-opacity:1; 
stroke-linecap:round; stroke-linejoin:round;fill-rule:evenodd;"
d="M 117824195.000000,29735001.000000
120204193.000000,29735001.000000
120204193.000000,30834999.000000
117824195.000000,30834999.000000
Z" /> 
</g>
<g >
</g>
<g style="fill:#000000; fill-opacity:1.0; 
stroke:#000000; stroke-width:1.000000; stroke-opacity:1; 
stroke-linecap:round; stroke-linejoin:round;">
<path style="fill:#000000; fill-opacity:1.0; 
stroke:#000000; stroke-width:1.000000; stroke-opacity:1; 
stroke-linecap:round; stroke-linejoin:round;fill-rule:evenodd;"
d="M 75849195.000000,59189999.000000
75849195.000000,56810001.000000
78179193.000000,56810001.000000
78179193.000000,59189999.000000
Z" /> 
<path style="fill:#000000; fill-opacity:1.0; 
stroke:#000000; stroke-width:1.000000; stroke-opacity:1; 
stroke-linecap:round; stroke-linejoin:round;fill-rule:evenodd;"
d="M 74249195.000000,59189999.000000
74249195.000000,56810001.000000
75349193.000000,56810001.000000
75349193.000000,59189999.000000
Z" /> 
</g>
<g >
</g>
<g style="fill:#000000; fill-opacity:1.0; 
stroke:#000000; stroke-width:1.000000; stroke-opacity:1; 
stroke-linecap:round; stroke-linejoin:round;">
<path style="fill:#000000; fill-opacity:1.0; 
stroke:#000000; stroke-width:1.000000; stroke-opacity:1; 
stroke-linecap:round; stroke-linejoin:round;fill-rule:evenodd;"
d="M 80753839.000000,56725000.000000
80769063.000000,56648463.000000
80812418.000000,56583579.000000
80877302.000000,56540224.000000
80953839.000000,56525000.000000
81353839.000000,56525000.000000
81430376.000000,56540224.000000
81495260.000000,56583579.000000
81538615.000000,56648463.000000
81553839.000000,56725000.000000
81553839.000000,57275000.000000
81538615.000000,57351537.000000
81495260.000000,57416421.000000
81430376.000000,57459776.000000
81353839.000000,57475000.000000
80953839.000000,57475000.000000
80877302.000000,57459776.000000
80812418.000000,57416421.000000
80769063.000000,57351537.000000
80753839.000000,57275000.000000
Z" /> 
<path style="fill:#000000; fill-opacity:1.0; 
stroke:#000000; stroke-width:1.000000; stroke-opacity:1; 
stroke-linecap:round; stroke-linejoin:round;fill-rule:evenodd;"
d="M 82403839.000000,56725000.000000
82419063.000000,56648463.000000
82462418.000000,56583579.000000
82527302.000000,56540224.000000
82603839.000000,56525000.000000
83003839.000000,56525000.000000
83080376.000000,56540224.000000
83145260.000000,56583579.000000
83188615.000000,56648463.000000
83203839.000000,56725000.000000
83203839.000000,57275000.000000
83188615.000000,57351537.000000
83145260.000000,57416421.000000
83080376.000000,57459776.000000
83003839.000000,57475000.000000
82603839.000000,57475000.000000
82527302.000000,57459776.000000
82462418.000000,57416421.000000
82419063.000000,57351537.000000
82403839.000000,57275000.000000
Z" /> 
</g>
<g >
</g>
<g style="fill:#000000; fill-opacity:1.0; 
stroke:#000000; stroke-width:1.000000; stroke-opacity:1; 
stroke-linecap:round; stroke-linejoin:round;">
<path style="fill:#000000; fill-opacity:1.0; 
stroke:#000000; stroke-width:1.000000; stroke-opacity:1; 
stroke-linecap:round; stroke-linejoin:round;fill-rule:evenodd;"
d="M 99464194.000000,4725000.000000
99479418.000000,4648463.000000
99522773.000000,4583579.000000
99587657.000000,4540224.000000
99664194.000000,4525000.000000
100064194.000000,4525000.000000
100140731.000000,4540224.000000
100205615.000000,4583579.000000
100248970.000000,4648463.000000
100264194.000000,4725000.000000
100264194.000000,5275000.000000
100248970.000000,5351537.000000
100205615.000000,5416421.000000
100140731.000000,5459776.000000
100064194.000000,5475000.000000
99664194.000000,5475000.000000
99587657.000000,5459776.000000
99522773.000000,5416421.000000
99479418.000000,5351537.000000
99464194.000000,5275000.000000
Z" /> 
<path style="fill:#000000; fill-opacity:1.0; 
stroke:#000000; stroke-width:1.000000; stroke-opacity:1; 
stroke-linecap:round; stroke-linejoin:round;fill-rule:evenodd;"
d="M 101114194.000000,4725000.000000
101129418.000000,4648463.000000
101172773.000000,4583579.000000
101237657.000000,4540224.000000
101314194.000000,4525000.000000
101714194.000000,4525000.000000
101790731.000000,4540224.000000
101855615.000000,4583579.000000
101898970.000000,4648463.000000
101914194.000000,4725000.000000
101914194.000000,5275000.000000
101898970.000000,5351537.000000
101855615.000000,5416421.000000
101790731.000000,5459776.000000
101714194.000000,5475000.000000
101314194.000000,5475000.000000
101237657.000000,5459776.000000
101172773.000000,5416421.000000
101129418.000000,5351537.000000
101114194.000000,5275000.000000
Z" /> 
</g>
<g >
</g>
<g style="fill:#000000; fill-opacity:1.0; 
stroke:#000000; stroke-width:1.000000; stroke-opacity:1; 
stroke-linecap:round; stroke-linejoin:round;">
<path style="fill:#000000; fill-opacity:1.0; 
stroke:#000000; stroke-width:1.000000; stroke-opacity:1; 
stroke-linecap:round; stroke-linejoin:round;fill-rule:evenodd;"
d="M 6289194.000000,8775000.000000
6365731.000000,8790224.000000
6430615.000000,8833579.000000
6473970.000000,8898463.000000
6489194.000000,8975000.000000
6489194.000000,9375000.000000
6473970.000000,9451537.000000
6430615.000000,9516421.000000
6365731.000000,9559776.000000
6289194.000000,9575000.000000
5739194.000000,9575000.000000
5662657.000000,9559776.000000
5597773.000000,9516421.000000
5554418.000000,9451537.000000
5539194.000000,9375000.000000
5539194.000000,8975000.000000
5554418.000000,8898463.000000
5597773.000000,8833579.000000
5662657.000000,8790224.000000
5739194.000000,8775000.000000
Z" /> 
<path style="fill:#000000; fill-opacity:1.0; 
stroke:#000000; stroke-width:1.000000; stroke-opacity:1; 
stroke-linecap:round; stroke-linejoin:round;fill-rule:evenodd;"
d="M 6289194.000000,10425000.000000
6365731.000000,10440224.000000
6430615.000000,10483579.000000
6473970.000000,10548463.000000
6489194.000000,10625000.000000
6489194.000000,11025000.000000
6473970.000000,11101537.000000
6430615.000000,11166421.000000
6365731.000000,11209776.000000
6289194.000000,11225000.000000
5739194.000000,11225000.000000
5662657.000000,11209776.000000
5597773.000000,11166421.000000
5554418.000000,11101537.000000
5539194.000000,11025000.000000
5539194.000000,10625000.000000
5554418.000000,10548463.000000
5597773.000000,10483579.000000
5662657.000000,10440224.000000
5739194.000000,10425000.000000
Z" /> 
</g>
<g >
</g>
<g style="fill:#000000; fill-opacity:1.0; 
stroke:#000000; stroke-width:1.000000; stroke-opacity:1; 
stroke-linecap:round; stroke-linejoin:round;">
<path style="fill:#000000; fill-opacity:1.0; 
stroke:#000000; stroke-width:1.000000; stroke-opacity:1; 
stroke-linecap:round; stroke-linejoin:round;fill-rule:evenodd;"
d="M 117824195.000000,13335001.000000
120204193.000000,13335001.000000
120204193.000000,15664999.000000
117824195.000000,15664999.000000
Z" /> 
<path style="fill:#000000; fill-opacity:1.0; 
stroke:#000000; stroke-width:1.000000; stroke-opacity:1; 
stroke-linecap:round; stroke-linejoin:round;fill-rule:evenodd;"
d="M 117824195.000000,11735001.000000
120204193.000000,11735001.000000
120204193.000000,12834999.000000
117824195.000000,12834999.000000
Z" /> 
</g>
<g >
</g>
<g style="fill:#000000; fill-opacity:1.0; 
stroke:#000000; stroke-width:1.000000; stroke-opacity:1; 
stroke-linecap:round; stroke-linejoin:round;">
<path style="fill:#000000; fill-opacity:1.0; 
stroke:#000000; stroke-width:1.000000; stroke-opacity:1; 
stroke-linecap:round; stroke-linejoin:round;fill-rule:evenodd;"
d="M 42464194.000000,4725000.000000
42479418.000000,4648463.000000
42522773.000000,4583579.000000
42587657.000000,4540224.000000
42664194.000000,4525000.000000
43064194.000000,4525000.000000
43140731.000000,4540224.000000
43205615.000000,4583579.000000
43248970.000000,4648463.000000
43264194.000000,4725000.000000
43264194.000000,5275000.000000
43248970.000000,5351537.000000
43205615.000000,5416421.000000
43140731.000000,5459776.000000
43064194.000000,5475000.000000
42664194.000000,5475000.000000
42587657.000000,5459776.000000
42522773.000000,5416421.000000
42479418.000000,5351537.000000
42464194.000000,5275000.000000
Z" /> 
<path style="fill:#000000; fill-opacity:1.0; 
stroke:#000000; stroke-width:1.000000; stroke-opacity:1; 
stroke-linecap:round; stroke-linejoin:round;fill-rule:evenodd;"
d="M 44114194.000000,4725000.000000
44129418.000000,4648463.000000
44172773.000000,4583579.000000
44237657.000000,4540224.000000
44314194.000000,4525000.000000
44714194.000000,4525000.000000
44790731.000000,4540224.000000
44855615.000000,4583579.000000
44898970.000000,4648463.000000
44914194.000000,4725000.000000
44914194.000000,5275000.000000
44898970.000000,5351537.000000
44855615.000000,5416421.000000
44790731.000000,5459776.000000
44714194.000000,5475000.000000
44314194.000000,5475000.000000
44237657.000000,5459776.000000
44172773.000000,5416421.000000
44129418.000000,5351537.000000
44114194.000000,5275000.000000
Z" /> 
</g>
<g >
</g>
<g style="fill:#000000; fill-opacity:1.0; 
stroke:#000000; stroke-width:1.000000; stroke-opacity:1; 
stroke-linecap:round; stroke-linejoin:round;">
<circle cx="117514194.000000" cy="5500000.000000" r="1350000.000000" /> 
</g>
<g style="fill:#000000; fill-opacity:1.0; 
stroke:#000000; stroke-width:21200.000000; stroke-opacity:1; 
stroke-linecap:round; stroke-linejoin:round;">
</g>
<g >
</g>
<g style="fill:#000000; fill-opacity:1.0; 
stroke:#000000; stroke-width:21200.000000; stroke-opacity:1; 
stroke-linecap:round; stroke-linejoin:round;">
</g>
<g style="fill:#000000; fill-opacity:1.0; 
stroke:#000000; stroke-width:1.000000; stroke-opacity:1; 
stroke-linecap:round; stroke-linejoin:round;">
<path style="fill:#000000; fill-opacity:1.0; 
stroke:#000000; stroke-width:1.000000; stroke-opacity:1; 
stroke-linecap:round; stroke-linejoin:round;fill-rule:evenodd;"
d="M 117824195.000000,40335001.000000
120204193.000000,40335001.000000
120204193.000000,42664999.000000
117824195.000000,42664999.000000
Z" /> 
<path style="fill:#000000; fill-opacity:1.0; 
stroke:#000000; stroke-width:1.000000; stroke-opacity:1; 
stroke-linecap:round; stroke-linejoin:round;fill-rule:evenodd;"
d="M 117824195.000000,38735001.000000
120204193.000000,38735001.000000
120204193.000000,39834999.000000
117824195.000000,39834999.000000
Z" /> 
</g>
<g >
</g>
<g style="fill:#000000; fill-opacity:1.0; 
stroke:#000000; stroke-width:1.000000; stroke-opacity:1; 
stroke-linecap:round; stroke-linejoin:round;">
<path style="fill:#000000; fill-opacity:1.0; 
stroke:#000000; stroke-width:1.000000; stroke-opacity:1; 
stroke-linecap:round; stroke-linejoin:round;fill-rule:evenodd;"
d="M 24789194.000000,58725000.000000
24804418.000000,58648463.000000
24847773.000000,58583579.000000
24912657.000000,58540224.000000
24989194.000000,58525000.000000
25389194.000000,58525000.000000
25465731.000000,58540224.000000
25530615.000000,58583579.000000
25573970.000000,58648463.000000
25589194.000000,58725000.000000
25589194.000000,59275000.000000
25573970.000000,59351537.000000
25530615.000000,59416421.000000
25465731.000000,59459776.000000
25389194.000000,59475000.000000
24989194.000000,59475000.000000
24912657.000000,59459776.000000
24847773.000000,59416421.000000
24804418.000000,59351537.000000
24789194.000000,59275000.000000
Z" /> 
<path style="fill:#000000; fill-opacity:1.0; 
stroke:#000000; stroke-width:1.000000; stroke-opacity:1; 
stroke-linecap:round; stroke-linejoin:round;fill-rule:evenodd;"
d="M 26439194.000000,58725000.000000
26454418.000000,58648463.000000
26497773.000000,58583579.000000
26562657.000000,58540224.000000
26639194.000000,58525000.000000
27039194.000000,58525000.000000
27115731.000000,58540224.000000
27180615.000000,58583579.000000
27223970.000000,58648463.000000
27239194.000000,58725000.000000
27239194.000000,59275000.000000
27223970.000000,59351537.000000
27180615.000000,59416421.000000
27115731.000000,59459776.000000
27039194.000000,59475000.000000
26639194.000000,59475000.000000
26562657.000000,59459776.000000
26497773.000000,59416421.000000
26454418.000000,59351537.000000
26439194.000000,59275000.000000
Z" /> 
</g>
<g >
</g>
<g style="fill:#000000; fill-opacity:1.0; 
stroke:#000000; stroke-width:1.000000; stroke-opacity:1; 
stroke-linecap:round; stroke-linejoin:round;">
<path style="fill:#000000; fill-opacity:1.0; 
stroke:#000000; stroke-width:1.000000; stroke-opacity:1; 
stroke-linecap:round; stroke-linejoin:round;fill-rule:evenodd;"
d="M 85349195.000000,5189999.000000
85349195.000000,2810001.000000
87679193.000000,2810001.000000
87679193.000000,5189999.000000
Z" /> 
<path style="fill:#000000; fill-opacity:1.0; 
stroke:#000000; stroke-width:1.000000; stroke-opacity:1; 
stroke-linecap:round; stroke-linejoin:round;fill-rule:evenodd;"
d="M 83749195.000000,5189999.000000
83749195.000000,2810001.000000
84849193.000000,2810001.000000
84849193.000000,5189999.000000
Z" /> 
</g>
<g >
</g>
<g style="fill:#000000; fill-opacity:1.0; 
stroke:#000000; stroke-width:1.000000; stroke-opacity:1; 
stroke-linecap:round; stroke-linejoin:round;">
<path style="fill:#000000; fill-opacity:1.0; 
stroke:#000000; stroke-width:1.000000; stroke-opacity:1; 
stroke-linecap:round; stroke-linejoin:round;fill-rule:evenodd;"
d="M 3824195.000000,40335001.000000
6204193.000000,40335001.000000
6204193.000000,42664999.000000
3824195.000000,42664999.000000
Z" /> 
<path style="fill:#000000; fill-opacity:1.0; 
stroke:#000000; stroke-width:1.000000; stroke-opacity:1; 
stroke-linecap:round; stroke-linejoin:round;fill-rule:evenodd;"
d="M 3824195.000000,38735001.000000
6204193.000000,38735001.000000
6204193.000000,39834999.000000
3824195.000000,39834999.000000
Z" /> 
</g>
<g >
</g>
<g style="fill:#000000; fill-opacity:1.0; 
stroke:#000000; stroke-width:1.000000; stroke-opacity:1; 
stroke-linecap:round; stroke-linejoin:round;">
<path style="fill:#000000; fill-opacity:1.0; 
stroke:#000000; stroke-width:1.000000; stroke-opacity:1; 
stroke-linecap:round; stroke-linejoin:round;fill-rule:evenodd;"
d="M 37849195.000000,59189999.000000
37849195.000000,56810001.000000
40179193.000000,56810001.000000
40179193.000000,59189999.000000
Z" /> 
<path style="fill:#000000; fill-opacity:1.0; 
stroke:#000000; stroke-width:1.000000; stroke-opacity:1; 
stroke-linecap:round; stroke-linejoin:round;fill-rule:evenodd;"
d="M 36249195.000000,59189999.000000
36249195.000000,56810001.000000
37349193.000000,56810001.000000
37349193.000000,59189999.000000
Z" /> 
</g>
<g >
</g>
<g style="fill:#000000; fill-opacity:1.0; 
stroke:#000000; stroke-width:1.000000; stroke-opacity:1; 
stroke-linecap:round; stroke-linejoin:round;">
<path style="fill:#000000; fill-opacity:1.0; 
stroke:#000000; stroke-width:1.000000; stroke-opacity:1; 
stroke-linecap:round; stroke-linejoin:round;fill-rule:evenodd;"
d="M 47349195.000000,59189999.000000
47349195.000000,56810001.000000
49679193.000000,56810001.000000
49679193.000000,59189999.000000
Z" /> 
<path style="fill:#000000; fill-opacity:1.0; 
stroke:#000000; stroke-width:1.000000; stroke-opacity:1; 
stroke-linecap:round; stroke-linejoin:round;fill-rule:evenodd;"
d="M 45749195.000000,59189999.000000
45749195.000000,56810001.000000
46849193.000000,56810001.000000
46849193.000000,59189999.000000
Z" /> 
</g>
<g >
</g>
<g style="fill:#000000; fill-opacity:1.0; 
stroke:#000000; stroke-width:1.000000; stroke-opacity:1; 
stroke-linecap:round; stroke-linejoin:round;">
<circle cx="6514194.000000" cy="56500000.000000" r="1350000.000000" /> 
</g>
<g style="fill:#000000; fill-opacity:1.0; 
stroke:#000000; stroke-width:21200.000000; stroke-opacity:1; 
stroke-linecap:round; stroke-linejoin:round;">
</g>
<g >
</g>
<g style="fill:#000000; fill-opacity:1.0; 
stroke:#000000; stroke-width:21200.000000; stroke-opacity:1; 
stroke-linecap:round; stroke-linejoin:round;">
</g>
<g style="fill:#000000; fill-opacity:1.0; 
stroke:#000000; stroke-width:1.000000; stroke-opacity:1; 
stroke-linecap:round; stroke-linejoin:round;">
<path style="fill:#000000; fill-opacity:1.0; 
stroke:#000000; stroke-width:1.000000; stroke-opacity:1; 
stroke-linecap:round; stroke-linejoin:round;fill-rule:evenodd;"
d="M 104349195.000000,59189999.000000
104349195.000000,56810001.000000
106679193.000000,56810001.000000
106679193.000000,59189999.000000
Z" /> 
<path style="fill:#000000; fill-opacity:1.0; 
stroke:#000000; stroke-width:1.000000; stroke-opacity:1; 
stroke-linecap:round; stroke-linejoin:round;fill-rule:evenodd;"
d="M 102749195.000000,59189999.000000
102749195.000000,56810001.000000
103849193.000000,56810001.000000
103849193.000000,59189999.000000
Z" /> 
</g>
<g >
</g>
<g style="fill:#000000; fill-opacity:1.0; 
stroke:#000000; stroke-width:1.000000; stroke-opacity:1; 
stroke-linecap:round; stroke-linejoin:round;">
<path style="fill:#000000; fill-opacity:1.0; 
stroke:#000000; stroke-width:1.000000; stroke-opacity:1; 
stroke-linecap:round; stroke-linejoin:round;fill-rule:evenodd;"
d="M 120289194.000000,26775000.000000
120365731.000000,26790224.000000
120430615.000000,26833579.000000
120473970.000000,26898463.000000
120489194.000000,26975000.000000
120489194.000000,27375000.000000
120473970.000000,27451537.000000
120430615.000000,27516421.000000
120365731.000000,27559776.000000
120289194.000000,27575000.000000
119739194.000000,27575000.000000
119662657.000000,27559776.000000
119597773.000000,27516421.000000
119554418.000000,27451537.000000
119539194.000000,27375000.000000
119539194.000000,26975000.000000
119554418.000000,26898463.000000
119597773.000000,26833579.000000
119662657.000000,26790224.000000
119739194.000000,26775000.000000
Z" /> 
<path style="fill:#000000; fill-opacity:1.0; 
stroke:#000000; stroke-width:1.000000; stroke-opacity:1; 
stroke-linecap:round; stroke-linejoin:round;fill-rule:evenodd;"
d="M 120289194.000000,28425000.000000
120365731.000000,28440224.000000
120430615.000000,28483579.000000
120473970.000000,28548463.000000
120489194.000000,28625000.000000
120489194.000000,29025000.000000
120473970.000000,29101537.000000
120430615.000000,29166421.000000
120365731.000000,29209776.000000
120289194.000000,29225000.000000
119739194.000000,29225000.000000
119662657.000000,29209776.000000
119597773.000000,29166421.000000
119554418.000000,29101537.000000
119539194.000000,29025000.000000
119539194.000000,28625000.000000
119554418.000000,28548463.000000
119597773.000000,28483579.000000
119662657.000000,28440224.000000
119739194.000000,28425000.000000
Z" /> 
</g>
<g >
</g>
<g style="fill:#000000; fill-opacity:1.0; 
stroke:#000000; stroke-width:1.000000; stroke-opacity:1; 
stroke-linecap:round; stroke-linejoin:round;">
<path style="fill:#000000; fill-opacity:1.0; 
stroke:#000000; stroke-width:1.000000; stroke-opacity:1; 
stroke-linecap:round; stroke-linejoin:round;fill-rule:evenodd;"
d="M 24789194.000000,56725000.000000
24804418.000000,56648463.000000
24847773.000000,56583579.000000
24912657.000000,56540224.000000
24989194.000000,56525000.000000
25389194.000000,56525000.000000
25465731.000000,56540224.000000
25530615.000000,56583579.000000
25573970.000000,56648463.000000
25589194.000000,56725000.000000
25589194.000000,57275000.000000
25573970.000000,57351537.000000
25530615.000000,57416421.000000
25465731.000000,57459776.000000
25389194.000000,57475000.000000
24989194.000000,57475000.000000
24912657.000000,57459776.000000
24847773.000000,57416421.000000
24804418.000000,57351537.000000
24789194.000000,57275000.000000
Z" /> 
<path style="fill:#000000; fill-opacity:1.0; 
stroke:#000000; stroke-width:1.000000; stroke-opacity:1; 
stroke-linecap:round; stroke-linejoin:round;fill-rule:evenodd;"
d="M 26439194.000000,56725000.000000
26454418.000000,56648463.000000
26497773.000000,56583579.000000
26562657.000000,56540224.000000
26639194.000000,56525000.000000
27039194.000000,56525000.000000
27115731.000000,56540224.000000
27180615.000000,56583579.000000
27223970.000000,56648463.000000
27239194.000000,56725000.000000
27239194.000000,57275000.000000
27223970.000000,57351537.000000
27180615.000000,57416421.000000
27115731.000000,57459776.000000
27039194.000000,57475000.000000
26639194.000000,57475000.000000
26562657.000000,57459776.000000
26497773.000000,57416421.000000
26454418.000000,57351537.000000
26439194.000000,57275000.000000
Z" /> 
</g>
<g >
</g>
<g style="fill:#000000; fill-opacity:1.0; 
stroke:#000000; stroke-width:1.000000; stroke-opacity:1; 
stroke-linecap:round; stroke-linejoin:round;">
<path style="fill:#000000; fill-opacity:1.0; 
stroke:#000000; stroke-width:1.000000; stroke-opacity:1; 
stroke-linecap:round; stroke-linejoin:round;fill-rule:evenodd;"
d="M 14464194.000000,2725000.000000
14479418.000000,2648463.000000
14522773.000000,2583579.000000
14587657.000000,2540224.000000
14664194.000000,2525000.000000
15064194.000000,2525000.000000
15140731.000000,2540224.000000
15205615.000000,2583579.000000
15248970.000000,2648463.000000
15264194.000000,2725000.000000
15264194.000000,3275000.000000
15248970.000000,3351537.000000
15205615.000000,3416421.000000
15140731.000000,3459776.000000
15064194.000000,3475000.000000
14664194.000000,3475000.000000
14587657.000000,3459776.000000
14522773.000000,3416421.000000
14479418.000000,3351537.000000
14464194.000000,3275000.000000
Z" /> 
<path style="fill:#000000; fill-opacity:1.0; 
stroke:#000000; stroke-width:1.000000; stroke-opacity:1; 
stroke-linecap:round; stroke-linejoin:round;fill-rule:evenodd;"
d="M 16114194.000000,2725000.000000
16129418.000000,2648463.000000
16172773.000000,2583579.000000
16237657.000000,2540224.000000
16314194.000000,2525000.000000
16714194.000000,2525000.000000
16790731.000000,2540224.000000
16855615.000000,2583579.000000
16898970.000000,2648463.000000
16914194.000000,2725000.000000
16914194.000000,3275000.000000
16898970.000000,3351537.000000
16855615.000000,3416421.000000
16790731.000000,3459776.000000
16714194.000000,3475000.000000
16314194.000000,3475000.000000
16237657.000000,3459776.000000
16172773.000000,3416421.000000
16129418.000000,3351537.000000
16114194.000000,3275000.000000
Z" /> 
</g>
<g >
</g>
<g style="fill:#000000; fill-opacity:1.0; 
stroke:#000000; stroke-width:1.000000; stroke-opacity:1; 
stroke-linecap:round; stroke-linejoin:round;">
<path style="fill:#000000; fill-opacity:1.0; 
stroke:#000000; stroke-width:1.000000; stroke-opacity:1; 
stroke-linecap:round; stroke-linejoin:round;fill-rule:evenodd;"
d="M 70964194.000000,4725000.000000
70979418.000000,4648463.000000
71022773.000000,4583579.000000
71087657.000000,4540224.000000
71164194.000000,4525000.000000
71564194.000000,4525000.000000
71640731.000000,4540224.000000
71705615.000000,4583579.000000
71748970.000000,4648463.000000
71764194.000000,4725000.000000
71764194.000000,5275000.000000
71748970.000000,5351537.000000
71705615.000000,5416421.000000
71640731.000000,5459776.000000
71564194.000000,5475000.000000
71164194.000000,5475000.000000
71087657.000000,5459776.000000
71022773.000000,5416421.000000
70979418.000000,5351537.000000
70964194.000000,5275000.000000
Z" /> 
<path style="fill:#000000; fill-opacity:1.0; 
stroke:#000000; stroke-width:1.000000; stroke-opacity:1; 
stroke-linecap:round; stroke-linejoin:round;fill-rule:evenodd;"
d="M 72614194.000000,4725000.000000
72629418.000000,4648463.000000
72672773.000000,4583579.000000
72737657.000000,4540224.000000
72814194.000000,4525000.000000
73214194.000000,4525000.000000
73290731.000000,4540224.000000
73355615.000000,4583579.000000
73398970.000000,4648463.000000
73414194.000000,4725000.000000
73414194.000000,5275000.000000
73398970.000000,5351537.000000
73355615.000000,5416421.000000
73290731.000000,5459776.000000
73214194.000000,5475000.000000
72814194.000000,5475000.000000
72737657.000000,5459776.000000
72672773.000000,5416421.000000
72629418.000000,5351537.000000
72614194.000000,5275000.000000
Z" /> 
</g>
<g >
</g>
<g style="fill:#000000; fill-opacity:1.0; 
stroke:#000000; stroke-width:1.000000; stroke-opacity:1; 
stroke-linecap:round; stroke-linejoin:round;">
<path style="fill:#000000; fill-opacity:1.0; 
stroke:#000000; stroke-width:1.000000; stroke-opacity:1; 
stroke-linecap:round; stroke-linejoin:round;fill-rule:evenodd;"
d="M 99464194.000000,2725000.000000
99479418.000000,2648463.000000
99522773.000000,2583579.000000
99587657.000000,2540224.000000
99664194.000000,2525000.000000
100064194.000000,2525000.000000
100140731.000000,2540224.000000
100205615.000000,2583579.000000
100248970.000000,2648463.000000
100264194.000000,2725000.000000
100264194.000000,3275000.000000
100248970.000000,3351537.000000
100205615.000000,3416421.000000
100140731.000000,3459776.000000
100064194.000000,3475000.000000
99664194.000000,3475000.000000
99587657.000000,3459776.000000
99522773.000000,3416421.000000
99479418.000000,3351537.000000
99464194.000000,3275000.000000
Z" /> 
<path style="fill:#000000; fill-opacity:1.0; 
stroke:#000000; stroke-width:1.000000; stroke-opacity:1; 
stroke-linecap:round; stroke-linejoin:round;fill-rule:evenodd;"
d="M 101114194.000000,2725000.000000
101129418.000000,2648463.000000
101172773.000000,2583579.000000
101237657.000000,2540224.000000
101314194.000000,2525000.000000
101714194.000000,2525000.000000
101790731.000000,2540224.000000
101855615.000000,2583579.000000
101898970.000000,2648463.000000
101914194.000000,2725000.000000
101914194.000000,3275000.000000
101898970.000000,3351537.000000
101855615.000000,3416421.000000
101790731.000000,3459776.000000
101714194.000000,3475000.000000
101314194.000000,3475000.000000
101237657.000000,3459776.000000
101172773.000000,3416421.000000
101129418.000000,3351537.000000
101114194.000000,3275000.000000
Z" /> 
</g>
<g >
</g>
<g style="fill:#000000; fill-opacity:1.0; 
stroke:#000000; stroke-width:1.000000; stroke-opacity:1; 
stroke-linecap:round; stroke-linejoin:round;">
<path style="fill:#000000; fill-opacity:1.0; 
stroke:#000000; stroke-width:1.000000; stroke-opacity:1; 
stroke-linecap:round; stroke-linejoin:round;fill-rule:evenodd;"
d="M 3824195.000000,21835001.000000
6204193.000000,21835001.000000
6204193.000000,24164999.000000
3824195.000000,24164999.000000
Z" /> 
<path style="fill:#000000; fill-opacity:1.0; 
stroke:#000000; stroke-width:1.000000; stroke-opacity:1; 
stroke-linecap:round; stroke-linejoin:round;fill-rule:evenodd;"
d="M 3824195.000000,20235001.000000
6204193.000000,20235001.000000
6204193.000000,21334999.000000
3824195.000000,21334999.000000
Z" /> 
</g>
<g >
</g>
<g style="fill:#000000; fill-opacity:1.0; 
stroke:#000000; stroke-width:1.000000; stroke-opacity:1; 
stroke-linecap:round; stroke-linejoin:round;">
<path style="fill:#000000; fill-opacity:1.0; 
stroke:#000000; stroke-width:1.000000; stroke-opacity:1; 
stroke-linecap:round; stroke-linejoin:round;fill-rule:evenodd;"
d="M 70964194.000000,2725000.000000
70979418.000000,2648463.000000
71022773.000000,2583579.000000
71087657.000000,2540224.000000
71164194.000000,2525000.000000
71564194.000000,2525000.000000
71640731.000000,2540224.000000
71705615.000000,2583579.000000
71748970.000000,2648463.000000
71764194.000000,2725000.000000
71764194.000000,3275000.000000
71748970.000000,3351537.000000
71705615.000000,3416421.000000
71640731.000000,3459776.000000
71564194.000000,3475000.000000
71164194.000000,3475000.000000
71087657.000000,3459776.000000
71022773.000000,3416421.000000
70979418.000000,3351537.000000
70964194.000000,3275000.000000
Z" /> 
<path style="fill:#000000; fill-opacity:1.0; 
stroke:#000000; stroke-width:1.000000; stroke-opacity:1; 
stroke-linecap:round; stroke-linejoin:round;fill-rule:evenodd;"
d="M 72614194.000000,2725000.000000
72629418.000000,2648463.000000
72672773.000000,2583579.000000
72737657.000000,2540224.000000
72814194.000000,2525000.000000
73214194.000000,2525000.000000
73290731.000000,2540224.000000
73355615.000000,2583579.000000
73398970.000000,2648463.000000
73414194.000000,2725000.000000
73414194.000000,3275000.000000
73398970.000000,3351537.000000
73355615.000000,3416421.000000
73290731.000000,3459776.000000
73214194.000000,3475000.000000
72814194.000000,3475000.000000
72737657.000000,3459776.000000
72672773.000000,3416421.000000
72629418.000000,3351537.000000
72614194.000000,3275000.000000
Z" /> 
</g>
<g >
</g>
<g style="fill:#000000; fill-opacity:1.0; 
stroke:#000000; stroke-width:1.000000; stroke-opacity:1; 
stroke-linecap:round; stroke-linejoin:round;">
<path style="fill:#000000; fill-opacity:1.0; 
stroke:#000000; stroke-width:1.000000; stroke-opacity:1; 
stroke-linecap:round; stroke-linejoin:round;fill-rule:evenodd;"
d="M 66349195.000000,5189999.000000
66349195.000000,2810001.000000
68679193.000000,2810001.000000
68679193.000000,5189999.000000
Z" /> 
<path style="fill:#000000; fill-opacity:1.0; 
stroke:#000000; stroke-width:1.000000; stroke-opacity:1; 
stroke-linecap:round; stroke-linejoin:round;fill-rule:evenodd;"
d="M 64749195.000000,5189999.000000
64749195.000000,2810001.000000
65849193.000000,2810001.000000
65849193.000000,5189999.000000
Z" /> 
</g>
<g >
</g>
<g >
</g>
<g >
</g>
<g >
</g>
</g>
<g style="fill:#000000; fill-opacity:1.0; 
stroke:#000000; stroke-width:1.000000; stroke-opacity:1; 
stroke-linecap:round; stroke-linejoin:round;">
</g>
<g style="fill:#000000; fill-opacity:1.0; 
stroke:#000000; stroke-width:100000.000000; stroke-opacity:1; 
stroke-linecap:round; stroke-linejoin:round;">
</g>
<g style="fill:#000000; fill-opacity:0.0; 
stroke:#000000; stroke-width:100000.000000; stroke-opacity:1; 
stroke-linecap:round; stroke-linejoin:round;">
<path d="M112978839 55000000
L10978839 55000000
" />
<path d="M10978839.000000 7000000.000000 A3000000.000000 3000000.000000 0.0 0 0 7978839.000000 10000000.000000" />
<path d="M10978839 7000000
L112978839 7000000
" />
<path d="M112978839.000000 55000000.000000 A3000000.000000 3000000.000000 0.0 0 0 115978839.000000 52000000.000000" />
<path d="M1978839 6000000
L1978839 56000000
" />
<path d="M7978839.000000 52000000.000000 A3000000.000000 3000000.000000 0.0 0 0 10978839.000000 55000000.000000" />
<path d="M7978839 10000000
L7978839 52000000
" />
<path d="M6978839 1000000
L116978839 1000000
" />
<path d="M121978839.000000 6000000.000000 A5000000.000000 5000000.000000 0.0 0 0 116978839.000000 1000000.000000" />
<path d="M6978839 61000000
L116978839 61000000
" />
<path d="M121978839 6000000
L121978839 56000000
" />
<path d="M115978839 52000000
L115978839 10000000
" />
<path d="M6978839.000000 1000000.000000 A5000000.000000 5000000.000000 0.0 0 0 1978839.000000 6000000.000000" />
<path d="M115978839.000000 10000000.000000 A3000000.000000 3000000.000000 0.0 0 0 112978839.000000 7000000.000000" />
<path d="M116978839.000000 61000000.000000 A5000000.000000 5000000.000000 0.0 0 0 121978839.000000 56000000.000000" />
<path d="M1978842.000000 56000003.000000 A4999997.000000 4999997.000000 0.0 0 0 6978839.000000 61000000.000000" />
<g >
</g>
<g >
</g>
<g >
</g>
<g >
</g>
<g >
</g>
<g >
</g>
<g >
</g>
<g >
</g>
<g >
</g>
<g >
</g>
<g >
</g>
<g >
</g>
<g >
</g>
<g >
</g>
<g >
</g>
<g >
</g>
<g >
</g>
<g >
</g>
<g >
</g>
<g >
</g>
<g >
</g>
<g >
</g>
<g >
</g>
<g >
</g>
<g >
</g>
<g >
</g>
<g >
</g>
<g >
</g>
<g >
</g>
<g >
</g>
<g >
</g>
<g >
</g>
<g >
</g>
<g >
</g>
<g >
</g>
<g >
</g>
<g >
</g>
<g >
</g>
<g >
</g>
<g >
</g>
<g >
</g>
<g >
</g>
<g >
</g>
<g >
</g>
<g >
</g>
<g >
</g>
<g >
</g>
<g >
</g>
<g >
</g>
<g >
</g>
<g >
</g>
<g >
</g>
<g >
</g>
<g >
</g>
<g >
</g>
<g >
</g>
<g >
</g>
</g> 
</svg>
